<svg id="svg" version="1.1" xmlns="http://www.w3.org/2000/svg" xmlns:xlink="http://www.w3.org/1999/xlink" width="400" height="439.21568627450984" viewBox="0, 0, 400,439.21568627450984"><g id="svgg"><path id="path0" d="M204.598 56.574 C 203.277 56.838,201.747 57.337,201.198 57.684 C 200.167 58.335,196.310 59.716,194.200 60.190 C 193.540 60.338,192.638 60.797,192.196 61.209 C 191.754 61.622,190.142 62.611,188.614 63.407 C 187.086 64.204,185.404 65.287,184.877 65.814 C 184.350 66.341,183.532 66.890,183.060 67.035 C 182.587 67.180,181.083 68.090,179.718 69.057 C 178.352 70.024,176.372 71.250,175.318 71.781 C 174.263 72.312,173.036 73.074,172.592 73.473 C 172.147 73.873,170.734 74.740,169.451 75.400 C 168.168 76.060,166.616 77.059,166.003 77.619 C 165.390 78.180,164.103 78.988,163.144 79.414 C 162.185 79.840,160.964 80.585,160.431 81.070 C 159.898 81.554,158.334 82.523,156.956 83.222 C 155.579 83.921,154.070 84.900,153.604 85.396 C 153.138 85.892,152.001 86.634,151.078 87.044 C 150.155 87.454,149.040 88.124,148.600 88.533 C 147.173 89.858,144.472 91.600,143.843 91.600 C 143.507 91.600,142.518 92.320,141.647 93.200 C 140.776 94.080,139.803 94.800,139.486 94.800 C 139.169 94.800,137.580 95.781,135.955 96.981 C 134.330 98.180,132.575 99.269,132.055 99.400 C 131.536 99.531,130.546 100.217,129.855 100.924 C 129.165 101.632,127.700 102.644,126.600 103.173 C 125.500 103.702,124.510 104.250,124.400 104.389 C 123.811 105.135,121.256 106.774,120.316 107.008 C 119.720 107.157,119.008 107.549,118.734 107.880 C 118.111 108.630,114.410 111.016,113.343 111.355 C 112.906 111.493,111.863 112.235,111.024 113.003 C 110.186 113.771,109.294 114.400,109.044 114.400 C 108.555 114.400,105.814 115.796,105.058 116.431 C 102.796 118.330,102.131 118.754,101.085 118.963 C 100.424 119.095,99.384 119.726,98.774 120.365 C 98.163 121.003,96.705 122.005,95.532 122.590 C 93.579 123.565,91.600 125.293,91.600 126.023 C 91.600 126.187,91.060 126.510,90.400 126.740 C 89.404 127.087,88.869 127.739,89.300 128.079 C 89.355 128.122,114.960 128.267,146.200 128.401 C 207.866 128.665,205.070 128.561,211.162 130.830 C 212.352 131.273,214.678 131.807,216.332 132.017 C 219.112 132.369,225.138 134.179,225.600 134.800 C 225.710 134.948,227.240 135.569,229.000 136.181 C 231.835 137.167,234.622 138.520,235.200 139.190 C 235.310 139.318,236.210 139.770,237.200 140.195 C 239.200 141.053,241.574 142.445,242.436 143.266 C 242.746 143.561,243.690 144.161,244.534 144.601 C 245.377 145.040,246.802 146.075,247.700 146.900 C 248.598 147.725,249.545 148.400,249.805 148.400 C 250.065 148.400,251.014 149.165,251.916 150.100 C 252.817 151.035,254.588 152.700,255.852 153.800 C 258.417 156.034,259.433 157.055,261.887 159.867 C 262.815 160.930,264.480 162.781,265.587 163.979 C 266.694 165.177,267.600 166.368,267.600 166.625 C 267.600 166.882,268.137 167.701,268.794 168.446 C 269.450 169.191,269.990 169.922,269.994 170.071 C 269.997 170.221,270.232 170.581,270.515 170.871 C 270.799 171.162,271.366 172.120,271.777 173.000 C 272.187 173.880,273.080 175.257,273.761 176.061 C 274.443 176.864,275.338 178.484,275.751 179.661 C 276.165 180.837,276.983 182.292,277.570 182.892 C 278.156 183.493,278.972 184.933,279.383 186.092 C 279.794 187.252,280.506 188.589,280.965 189.063 C 281.827 189.955,282.761 191.663,283.592 193.867 C 283.855 194.564,284.590 195.716,285.225 196.428 C 285.861 197.140,286.685 198.550,287.056 199.561 C 287.428 200.573,288.422 202.317,289.266 203.437 C 290.110 204.557,290.800 205.644,290.800 205.852 C 290.800 206.461,292.242 209.118,293.387 210.618 C 293.967 211.379,294.643 212.587,294.888 213.301 C 295.133 214.015,296.177 215.966,297.207 217.636 C 298.238 219.305,299.212 221.195,299.372 221.836 C 299.532 222.476,300.098 223.573,300.631 224.273 C 301.164 224.974,301.600 225.724,301.600 225.940 C 301.600 226.156,301.743 226.393,301.917 226.467 C 302.092 226.540,302.503 227.320,302.832 228.200 C 303.636 230.351,307.347 230.856,308.575 228.981 C 308.956 228.401,310.213 227.508,311.369 226.997 C 312.525 226.485,314.010 225.529,314.668 224.871 C 315.927 223.612,318.636 222.000,319.494 222.000 C 319.772 222.000,320.006 221.775,320.013 221.500 C 320.036 220.664,321.351 219.356,322.917 218.613 C 323.733 218.226,324.400 217.661,324.400 217.358 C 324.400 216.823,326.667 214.400,327.168 214.400 C 327.306 214.400,327.774 213.725,328.209 212.900 C 329.121 211.170,329.189 211.070,330.713 209.200 C 331.341 208.430,332.096 207.170,332.391 206.400 C 333.400 203.762,334.490 201.400,334.974 200.800 C 335.502 200.145,336.097 198.179,336.768 194.869 C 337.006 193.698,337.196 189.558,337.192 185.669 C 337.185 179.114,337.049 177.758,335.730 171.124 C 335.612 170.532,335.175 169.739,334.758 169.362 C 334.341 168.985,334.000 168.380,334.000 168.018 C 334.000 167.656,333.844 167.189,333.653 166.980 C 333.462 166.771,332.978 165.700,332.578 164.600 C 332.178 163.500,331.345 162.009,330.726 161.286 C 330.107 160.563,329.600 159.753,329.600 159.485 C 329.600 158.730,323.801 152.221,318.800 147.365 C 318.030 146.617,317.130 145.704,316.800 145.337 C 316.470 144.970,315.592 144.114,314.848 143.435 C 314.105 142.756,305.080 133.830,294.794 123.600 C 284.507 113.370,273.235 102.174,269.745 98.719 C 266.255 95.264,258.869 87.884,253.331 82.319 C 243.266 72.205,238.497 67.656,236.687 66.444 C 236.158 66.090,235.271 65.305,234.717 64.700 C 234.162 64.095,233.500 63.600,233.246 63.600 C 232.570 63.600,229.600 61.655,229.600 61.212 C 229.600 61.004,228.295 60.454,226.700 59.990 C 222.707 58.829,220.310 57.952,219.600 57.391 C 218.010 56.135,209.205 55.656,204.598 56.574 M56.710 156.224 C 56.580 156.354,55.422 156.701,54.137 156.995 C 48.558 158.273,47.645 158.759,47.613 160.464 C 47.606 160.830,47.037 161.603,46.349 162.182 C 44.382 163.836,44.113 169.625,45.887 172.116 C 46.546 173.042,47.484 175.096,47.970 176.681 C 48.457 178.265,49.176 179.975,49.568 180.481 C 50.485 181.661,51.377 183.634,52.247 186.400 C 52.627 187.610,53.325 189.140,53.798 189.800 C 54.657 191.000,56.800 196.203,56.800 197.090 C 56.800 197.348,57.311 198.334,57.936 199.280 C 59.248 201.266,60.400 204.050,60.400 205.235 C 60.400 205.685,60.828 206.626,61.350 207.327 C 62.514 208.887,63.365 210.755,64.138 213.447 C 64.461 214.573,65.356 216.373,66.127 217.447 C 66.898 218.521,67.658 220.120,67.817 221.000 C 68.160 222.906,68.563 223.738,70.042 225.600 C 70.653 226.370,71.473 228.170,71.863 229.600 C 72.285 231.146,73.020 232.685,73.677 233.397 C 74.799 234.610,75.098 235.238,76.024 238.320 C 76.309 239.266,76.970 240.526,77.494 241.120 C 78.839 242.645,79.462 243.941,79.786 245.886 C 79.940 246.814,80.567 248.203,81.179 248.974 C 81.791 249.744,82.512 250.965,82.780 251.687 C 83.048 252.409,83.432 253.313,83.633 253.695 C 83.835 254.077,84.000 254.720,84.000 255.123 C 84.000 255.527,84.535 256.565,85.189 257.429 C 85.843 258.293,86.665 259.900,87.015 261.000 C 87.911 263.810,88.871 266.000,89.206 266.000 C 89.363 266.000,89.811 266.855,90.202 267.900 C 90.593 268.945,91.044 269.980,91.204 270.200 C 91.364 270.420,91.616 271.267,91.763 272.082 C 91.909 272.896,92.655 274.492,93.419 275.628 C 94.183 276.763,94.909 278.166,95.032 278.746 C 95.155 279.326,95.423 280.213,95.628 280.719 C 95.832 281.224,96.000 281.961,96.000 282.357 C 96.000 282.752,96.460 283.599,97.021 284.238 C 98.358 285.760,99.117 287.581,99.446 290.060 C 99.593 291.168,99.912 292.241,100.156 292.444 C 100.400 292.648,100.997 293.141,101.483 293.539 C 102.313 294.221,103.011 296.158,103.478 299.073 C 103.599 299.830,104.224 300.840,105.022 301.566 C 106.251 302.684,106.760 303.829,107.388 306.892 C 107.511 307.493,108.239 308.612,109.006 309.379 C 109.773 310.146,110.400 311.129,110.400 311.563 C 110.400 311.997,110.556 312.449,110.747 312.568 C 110.939 312.686,111.214 313.529,111.360 314.443 C 111.533 315.524,112.026 316.477,112.773 317.175 C 113.550 317.901,114.205 319.207,114.802 321.223 C 115.287 322.860,116.040 324.537,116.477 324.948 C 117.412 325.831,118.569 328.408,118.950 330.458 C 119.099 331.260,119.750 332.583,120.398 333.398 C 121.061 334.232,122.024 336.348,122.601 338.240 C 123.165 340.088,123.778 341.600,123.964 341.600 C 124.458 341.600,126.265 345.430,127.063 348.169 C 127.443 349.472,128.154 350.887,128.644 351.313 C 129.134 351.739,129.927 353.135,130.405 354.414 C 131.368 356.990,137.704 364.001,139.609 364.600 C 140.154 364.771,141.019 365.360,141.531 365.909 C 142.109 366.529,143.474 367.182,145.131 367.631 C 149.097 368.705,150.001 369.028,152.237 370.169 L 154.275 371.209 222.237 371.105 L 290.200 371.000 291.651 370.143 C 292.448 369.671,293.708 369.161,294.451 369.010 C 295.193 368.858,296.340 368.573,297.000 368.376 C 297.660 368.179,299.447 367.727,300.971 367.372 C 302.846 366.936,303.972 366.435,304.452 365.825 C 304.842 365.329,306.025 364.594,307.080 364.191 C 308.136 363.789,309.557 362.906,310.237 362.230 C 312.014 360.463,312.998 359.718,313.954 359.414 C 315.074 359.059,321.127 351.224,321.177 350.065 C 321.190 349.771,321.729 348.781,322.375 347.865 C 323.759 345.903,324.829 342.589,326.076 336.400 C 326.764 332.988,326.746 324.880,326.043 321.600 C 324.684 315.253,323.512 311.466,322.062 308.736 C 321.205 307.121,320.382 305.125,320.233 304.300 C 320.085 303.475,319.834 302.800,319.675 302.800 C 319.096 302.800,316.907 298.956,316.631 297.453 C 316.461 296.533,315.888 295.479,315.216 294.853 C 314.082 293.796,312.741 291.190,312.235 289.058 C 312.086 288.430,311.629 287.828,311.219 287.721 C 310.484 287.529,308.400 284.030,308.400 282.987 C 308.400 282.691,307.688 281.626,306.817 280.620 C 305.947 279.614,305.118 278.169,304.975 277.409 C 304.833 276.648,304.258 275.532,303.699 274.929 C 302.499 273.634,300.992 270.708,300.623 268.957 C 300.473 268.242,299.962 267.501,299.421 267.211 C 298.903 266.934,298.173 265.963,297.799 265.054 C 297.424 264.144,296.956 263.087,296.759 262.705 C 296.562 262.323,296.400 261.736,296.400 261.400 C 296.400 261.064,295.884 260.296,295.254 259.694 C 294.624 259.092,293.621 257.430,293.026 256.000 C 292.431 254.570,291.537 252.950,291.039 252.400 C 290.541 251.850,289.739 250.339,289.258 249.042 C 288.777 247.745,287.782 245.855,287.048 244.842 C 286.314 243.829,285.393 241.966,285.003 240.703 C 284.612 239.440,283.787 237.878,283.170 237.232 C 282.224 236.242,280.800 232.783,280.800 231.475 C 280.800 231.266,280.184 230.513,279.430 229.803 C 278.625 229.043,277.875 227.820,277.609 226.833 C 277.360 225.910,276.570 224.490,275.852 223.677 C 274.370 222.001,273.200 219.685,273.200 218.431 C 273.200 217.923,272.814 217.407,272.238 217.144 C 271.708 216.903,271.002 216.142,270.667 215.453 C 269.742 213.546,268.800 211.310,268.800 211.020 C 268.800 210.877,268.170 210.112,267.400 209.319 C 266.630 208.526,266.000 207.551,266.000 207.152 C 266.000 206.242,264.761 203.600,264.334 203.600 C 263.810 203.600,261.608 199.471,261.604 198.481 C 261.602 197.975,261.149 197.144,260.598 196.633 C 259.607 195.714,257.215 191.423,257.205 190.546 C 257.202 190.296,256.733 189.786,256.163 189.412 C 255.592 189.038,254.789 187.972,254.378 187.044 C 253.967 186.115,253.039 184.733,252.315 183.973 C 251.592 183.213,250.640 182.077,250.200 181.450 C 248.863 179.542,243.929 174.668,241.700 173.054 C 240.545 172.217,239.600 171.385,239.600 171.205 C 239.600 170.780,236.919 169.200,236.197 169.200 C 235.891 169.200,235.161 168.571,234.575 167.803 C 233.871 166.880,232.964 166.260,231.899 165.973 C 230.101 165.489,227.200 163.790,227.200 163.222 C 227.200 163.020,226.885 162.769,226.500 162.666 C 226.115 162.562,224.578 162.161,223.084 161.775 C 221.110 161.265,220.016 160.716,219.084 159.769 C 217.827 158.493,217.689 158.456,212.600 158.012 C 209.740 157.763,205.240 157.275,202.600 156.927 C 197.735 156.286,57.324 155.609,56.710 156.224 " stroke="none" fill="#71d66b" fill-rule="evenodd"></path><path id="path1" d="M201.623 54.674 C 199.206 55.046,197.429 55.552,196.689 56.079 C 196.053 56.532,194.257 57.334,192.696 57.862 C 189.745 58.860,187.200 60.222,187.200 60.802 C 187.200 60.987,186.570 61.346,185.800 61.600 C 184.600 61.996,180.606 64.451,180.000 65.165 C 179.890 65.295,178.901 65.840,177.802 66.378 C 176.702 66.915,175.532 67.663,175.202 68.041 C 174.871 68.418,173.489 69.310,172.132 70.023 C 170.774 70.736,169.224 71.726,168.687 72.224 C 168.150 72.722,166.851 73.521,165.800 74.000 C 164.749 74.479,163.434 75.292,162.878 75.808 C 162.322 76.323,160.952 77.232,159.834 77.828 C 158.715 78.424,157.350 79.311,156.800 79.799 C 156.250 80.287,155.170 81.025,154.400 81.437 C 153.630 81.850,152.550 82.568,152.000 83.033 C 151.450 83.498,149.872 84.550,148.494 85.372 C 147.115 86.193,145.335 87.481,144.538 88.233 C 143.740 88.985,142.770 89.600,142.382 89.600 C 141.993 89.600,140.914 90.236,139.983 91.014 C 139.052 91.792,137.140 92.983,135.735 93.661 C 134.330 94.339,132.948 95.224,132.665 95.629 C 132.382 96.033,131.309 96.725,130.282 97.165 C 128.506 97.926,126.457 99.211,125.282 100.300 C 124.986 100.575,124.562 100.800,124.341 100.800 C 124.120 100.800,122.611 101.692,120.988 102.783 C 119.364 103.873,117.353 105.122,116.518 105.558 C 115.683 105.994,114.460 106.834,113.800 107.423 C 113.140 108.012,111.880 108.813,111.000 109.203 C 110.120 109.592,108.823 110.436,108.117 111.076 C 107.411 111.717,105.988 112.664,104.955 113.179 C 103.923 113.695,102.446 114.713,101.674 115.441 C 100.902 116.169,99.781 116.872,99.182 117.004 C 98.584 117.135,97.398 117.835,96.547 118.560 C 95.696 119.284,93.935 120.466,92.632 121.188 C 91.330 121.909,89.829 123.017,89.297 123.650 C 88.764 124.282,88.105 124.800,87.831 124.800 C 86.254 124.800,84.279 127.405,84.918 128.642 C 86.072 130.872,84.143 130.797,143.200 130.920 C 182.740 131.002,198.131 131.159,199.000 131.488 C 200.084 131.898,201.223 132.143,207.200 133.248 C 208.190 133.431,210.410 133.759,212.134 133.977 C 215.358 134.384,217.747 135.038,218.800 135.800 C 219.880 136.582,221.358 137.149,224.000 137.795 C 225.430 138.144,227.230 138.765,228.000 139.175 C 231.556 141.067,232.729 141.650,234.478 142.398 C 235.511 142.839,236.531 143.200,236.745 143.200 C 236.958 143.200,237.193 143.342,237.267 143.517 C 237.501 144.073,240.255 145.999,240.838 146.015 C 241.147 146.023,242.570 146.924,244.000 148.018 C 245.430 149.111,247.170 150.216,247.867 150.471 C 248.564 150.727,249.326 151.359,249.561 151.875 C 249.796 152.391,250.756 153.280,251.694 153.852 C 252.632 154.423,253.763 155.454,254.207 156.143 C 254.651 156.832,255.506 157.632,256.108 157.920 C 256.710 158.209,257.459 158.941,257.772 159.546 C 258.085 160.152,259.030 161.378,259.871 162.271 C 260.712 163.164,261.587 164.143,261.815 164.447 C 262.044 164.751,263.259 166.250,264.515 167.778 C 265.772 169.306,266.800 170.756,266.800 171.002 C 266.800 171.247,267.306 171.977,267.923 172.624 C 268.541 173.271,269.380 174.520,269.788 175.400 C 270.195 176.280,271.040 177.639,271.666 178.419 C 272.844 179.888,274.400 182.690,274.400 183.341 C 274.400 183.546,274.905 184.196,275.522 184.786 C 276.139 185.375,276.886 186.475,277.182 187.229 C 278.341 190.183,279.019 191.434,279.908 192.261 C 280.417 192.735,281.199 194.162,281.645 195.431 C 282.091 196.701,283.164 198.728,284.028 199.935 C 284.893 201.142,285.600 202.465,285.600 202.874 C 285.600 203.487,287.251 206.469,287.996 207.200 C 288.398 207.594,289.577 210.220,289.820 211.260 C 289.956 211.844,290.423 212.704,290.859 213.171 C 291.607 213.974,294.000 218.437,294.000 219.029 C 294.000 219.180,294.688 220.315,295.530 221.551 C 296.371 222.788,297.275 224.430,297.539 225.200 C 299.034 229.567,303.076 233.645,305.137 232.864 C 305.722 232.642,306.878 232.348,307.706 232.211 C 308.647 232.055,309.704 231.469,310.523 230.650 C 311.244 229.929,313.142 228.736,314.740 228.000 C 316.339 227.263,317.831 226.316,318.056 225.896 C 318.280 225.476,319.072 224.878,319.815 224.568 C 320.558 224.258,322.000 223.193,323.019 222.202 C 324.039 221.211,325.017 220.400,325.193 220.400 C 325.676 220.400,329.617 216.395,330.703 214.800 C 331.228 214.030,332.163 212.843,332.782 212.162 C 333.401 211.481,334.040 210.505,334.202 209.994 C 334.364 209.483,335.022 208.150,335.665 207.032 C 337.628 203.615,338.250 201.932,338.780 198.600 C 339.059 196.840,339.660 194.410,340.113 193.200 C 341.443 189.654,341.320 180.980,339.875 176.379 C 339.284 174.498,338.800 172.474,338.800 171.881 C 338.800 170.467,337.291 166.091,336.330 164.719 C 335.914 164.125,335.144 162.668,334.619 161.481 C 334.094 160.294,332.931 158.476,332.035 157.441 C 331.139 156.405,330.211 155.194,329.973 154.750 C 329.735 154.305,328.879 153.264,328.070 152.437 C 327.262 151.610,326.219 150.498,325.754 149.966 C 325.289 149.435,324.299 148.413,323.554 147.695 C 322.809 146.977,321.883 146.077,321.496 145.695 C 316.368 140.635,312.376 136.848,311.492 136.205 C 310.892 135.768,310.400 135.210,310.400 134.965 C 310.400 134.720,309.818 134.088,309.107 133.560 C 308.396 133.032,307.451 132.177,307.007 131.660 C 306.563 131.143,305.768 130.333,305.240 129.860 C 304.711 129.387,303.901 128.588,303.440 128.084 C 302.978 127.580,302.081 126.680,301.446 126.084 C 300.811 125.488,299.911 124.579,299.446 124.065 C 298.238 122.729,281.455 105.964,280.334 104.975 C 279.820 104.520,279.130 103.841,278.800 103.464 C 278.470 103.087,274.060 98.658,269.000 93.621 C 263.940 88.584,259.311 83.954,258.712 83.332 C 258.114 82.709,257.124 81.746,256.512 81.191 C 255.901 80.635,255.042 79.690,254.605 79.091 C 254.168 78.491,253.610 78.000,253.365 78.000 C 253.120 78.000,252.488 77.418,251.960 76.707 C 251.432 75.996,250.577 75.051,250.060 74.607 C 249.543 74.163,247.444 72.180,245.396 70.200 C 240.222 65.198,237.368 62.736,235.660 61.800 C 234.857 61.360,234.110 60.900,234.000 60.779 C 233.077 59.759,230.585 58.382,228.600 57.797 C 227.280 57.407,225.530 56.643,224.712 56.098 C 221.841 54.188,209.662 53.436,201.623 54.674 M220.000 55.618 C 220.770 55.863,222.300 56.491,223.400 57.013 C 224.500 57.535,225.940 58.085,226.600 58.235 C 228.073 58.570,232.000 60.431,232.000 60.794 C 232.000 60.939,232.785 61.450,233.744 61.929 C 234.702 62.408,236.277 63.489,237.244 64.332 C 238.210 65.174,239.438 66.210,239.974 66.632 C 240.510 67.054,249.458 75.860,259.858 86.200 C 270.259 96.540,282.961 109.162,288.084 114.250 C 293.208 119.337,300.504 126.627,304.298 130.450 C 308.092 134.272,313.278 139.380,315.821 141.800 C 332.858 158.007,336.794 164.389,339.015 179.407 C 339.923 185.547,339.719 188.467,337.646 199.029 C 337.196 201.324,336.574 202.906,335.505 204.482 C 335.101 205.078,334.567 206.158,334.317 206.882 C 333.799 208.388,332.221 210.934,330.900 212.396 C 330.405 212.944,330.000 213.539,330.000 213.719 C 330.000 214.533,320.262 223.600,319.388 223.600 C 319.101 223.600,318.807 223.735,318.733 223.900 C 318.458 224.520,314.070 227.399,312.800 227.794 C 312.250 227.965,311.080 228.763,310.200 229.567 C 305.344 234.006,302.680 232.631,297.887 223.211 C 296.826 221.127,295.830 219.327,295.673 219.211 C 295.516 219.095,294.670 217.577,293.794 215.839 C 291.529 211.346,291.444 211.200,291.105 211.200 C 290.937 211.200,290.800 210.955,290.800 210.656 C 290.800 210.091,288.797 206.143,287.626 204.400 C 287.256 203.850,286.370 202.188,285.655 200.707 C 284.941 199.226,284.141 197.779,283.878 197.491 C 283.141 196.686,282.400 195.270,282.400 194.665 C 282.400 194.365,281.843 193.351,281.163 192.412 C 279.881 190.642,277.600 186.469,277.600 185.894 C 277.600 185.713,277.186 185.118,276.679 184.572 C 276.172 184.025,275.105 182.278,274.307 180.689 C 273.509 179.100,272.502 177.423,272.070 176.962 C 271.638 176.502,270.992 175.557,270.633 174.864 C 269.534 172.738,265.587 167.096,263.950 165.309 C 263.097 164.379,262.400 163.465,262.400 163.278 C 262.400 162.599,250.502 150.990,248.527 149.741 C 247.907 149.349,246.680 148.455,245.800 147.753 C 244.920 147.051,243.308 146.004,242.219 145.427 C 241.129 144.849,239.959 144.127,239.619 143.822 C 238.503 142.820,228.312 137.912,225.425 136.985 C 223.871 136.487,221.756 135.712,220.725 135.264 C 218.667 134.370,215.699 133.613,210.200 132.578 C 208.220 132.205,206.150 131.729,205.600 131.518 C 202.739 130.425,196.931 130.288,143.532 130.049 L 88.064 129.800 87.032 128.830 C 85.684 127.564,85.685 127.560,87.900 125.983 C 88.945 125.239,90.265 124.173,90.834 123.615 C 91.403 123.057,92.710 122.181,93.740 121.669 C 94.770 121.156,96.149 120.286,96.804 119.735 C 97.460 119.183,98.869 118.253,99.935 117.666 C 101.002 117.080,102.398 116.190,103.037 115.689 C 103.677 115.188,105.550 113.962,107.200 112.966 C 111.729 110.230,114.531 108.449,115.218 107.870 C 115.557 107.583,116.145 107.230,116.522 107.085 C 116.900 106.940,118.692 105.861,120.505 104.687 C 122.317 103.513,125.060 101.754,126.600 100.778 C 128.140 99.802,129.460 98.868,129.533 98.702 C 129.607 98.536,129.849 98.400,130.072 98.400 C 130.294 98.400,131.944 97.436,133.738 96.257 C 135.532 95.079,137.614 93.799,138.365 93.414 C 139.115 93.028,140.193 92.282,140.760 91.756 C 141.327 91.231,142.423 90.503,143.196 90.139 C 143.968 89.775,145.260 88.920,146.066 88.239 C 146.872 87.557,148.398 86.550,149.458 86.000 C 150.519 85.450,151.590 84.820,151.840 84.600 C 153.396 83.228,154.467 82.490,156.125 81.644 C 157.156 81.119,158.000 80.529,158.000 80.335 C 158.000 80.140,158.405 79.822,158.900 79.628 C 159.395 79.435,161.297 78.269,163.126 77.038 C 164.955 75.807,166.593 74.800,166.766 74.800 C 166.938 74.800,167.872 74.218,168.840 73.506 C 170.701 72.139,171.035 71.933,174.192 70.211 C 175.288 69.613,176.618 68.691,177.147 68.162 C 177.676 67.633,178.327 67.200,178.593 67.200 C 178.860 67.200,180.590 66.187,182.439 64.950 C 184.287 63.712,186.070 62.602,186.400 62.482 C 186.730 62.363,187.720 61.780,188.600 61.187 C 190.703 59.769,193.323 58.523,194.917 58.182 C 195.623 58.031,196.380 57.763,196.601 57.587 C 199.606 55.184,214.666 53.917,220.000 55.618 M52.400 153.176 C 52.070 153.362,51.350 153.715,50.800 153.960 C 47.135 155.592,43.882 158.476,42.763 161.087 C 40.786 165.699,41.589 173.474,44.593 178.787 C 45.371 180.164,46.126 181.765,46.271 182.345 C 46.637 183.808,47.972 186.800,48.794 188.000 C 49.171 188.550,49.986 190.350,50.605 192.000 C 51.655 194.796,52.632 196.727,53.237 197.200 C 53.378 197.310,53.909 198.660,54.417 200.200 C 54.925 201.740,55.846 203.720,56.462 204.600 C 57.079 205.480,57.958 207.344,58.416 208.743 C 58.873 210.142,59.658 211.729,60.159 212.270 C 60.661 212.811,61.491 214.546,62.004 216.127 C 62.518 217.707,63.491 219.659,64.169 220.463 C 64.856 221.280,65.723 223.048,66.132 224.463 C 66.535 225.859,67.317 227.596,67.871 228.324 C 68.785 229.526,70.400 233.395,70.400 234.382 C 70.400 234.603,71.000 235.733,71.733 236.892 C 72.466 238.052,73.384 239.990,73.772 241.200 C 74.160 242.410,75.159 244.672,75.991 246.227 C 76.823 247.782,77.630 249.625,77.783 250.322 C 77.936 251.020,78.228 251.694,78.431 251.819 C 78.634 251.945,78.800 252.310,78.800 252.632 C 78.800 252.953,79.217 253.887,79.726 254.708 C 80.236 255.529,81.080 257.370,81.602 258.800 C 82.423 261.047,83.884 264.083,84.779 265.400 C 84.928 265.620,85.560 267.150,86.182 268.800 C 86.804 270.450,87.538 272.070,87.812 272.400 C 88.475 273.197,90.000 276.613,90.000 277.300 C 90.000 277.599,90.563 278.731,91.251 279.816 C 91.939 280.901,92.729 282.432,93.007 283.219 C 93.825 285.538,95.245 288.502,95.806 289.064 C 96.093 289.351,96.633 290.444,97.006 291.493 C 98.000 294.286,98.460 295.261,99.418 296.600 C 100.377 297.941,101.230 299.808,101.976 302.200 C 102.250 303.080,102.986 304.534,103.612 305.430 C 104.238 306.327,104.878 307.587,105.034 308.230 C 105.422 309.824,107.112 313.634,107.765 314.386 C 108.057 314.724,108.774 316.348,109.358 317.995 C 109.942 319.642,110.835 321.622,111.344 322.395 C 111.853 323.168,112.400 324.340,112.559 325.000 C 112.718 325.660,113.629 327.820,114.584 329.800 C 117.012 334.835,118.000 337.086,118.000 337.586 C 118.000 337.822,118.412 338.687,118.916 339.508 C 119.420 340.329,120.161 341.810,120.563 342.800 C 122.076 346.531,126.196 354.670,127.473 356.454 C 128.203 357.473,128.800 358.500,128.800 358.736 C 128.800 358.971,129.790 360.178,131.000 361.418 C 132.210 362.657,133.200 363.802,133.200 363.962 C 133.200 364.122,133.875 364.634,134.700 365.100 C 135.525 365.566,136.884 366.577,137.721 367.347 C 138.708 368.255,140.197 369.042,141.962 369.588 C 143.457 370.051,145.052 370.776,145.506 371.198 C 147.695 373.238,146.254 373.200,221.990 373.200 C 297.237 373.200,297.201 373.201,299.367 371.271 C 299.825 370.863,301.640 370.116,303.400 369.610 C 305.210 369.090,307.555 368.049,308.800 367.212 C 310.010 366.399,311.765 365.251,312.700 364.661 C 313.635 364.071,314.400 363.419,314.400 363.211 C 314.400 363.004,315.210 362.359,316.200 361.779 C 317.190 361.199,318.000 360.560,318.000 360.360 C 318.000 360.159,318.790 359.217,319.755 358.266 C 320.720 357.314,321.784 356.010,322.121 355.368 C 322.457 354.726,323.131 353.777,323.619 353.260 C 324.615 352.204,326.399 349.012,326.402 348.279 C 326.404 348.015,326.695 347.260,327.050 346.600 C 329.157 342.680,329.570 341.503,330.062 338.000 C 331.075 330.789,330.516 318.658,329.020 315.400 C 326.906 310.795,326.396 309.590,326.367 309.126 C 326.350 308.837,325.818 307.700,325.187 306.600 C 324.556 305.500,323.390 303.262,322.596 301.626 C 321.802 299.990,320.623 298.049,319.976 297.312 C 319.329 296.575,318.800 295.718,318.800 295.407 C 318.800 294.626,317.084 291.472,316.063 290.375 C 315.599 289.877,315.011 288.824,314.756 288.035 C 314.501 287.246,313.709 285.790,312.995 284.800 C 311.741 283.061,310.000 279.622,310.000 278.884 C 310.000 278.686,309.626 278.186,309.169 277.772 C 308.712 277.358,307.982 276.205,307.546 275.210 C 306.046 271.782,305.082 270.017,304.342 269.348 C 303.934 268.978,303.600 268.431,303.600 268.133 C 303.600 267.834,303.429 267.277,303.219 266.895 C 303.010 266.513,302.521 265.480,302.133 264.600 C 301.745 263.720,301.016 262.552,300.514 262.004 C 300.011 261.456,299.600 260.797,299.600 260.539 C 299.600 259.975,297.165 255.091,296.731 254.785 C 296.564 254.666,295.862 253.316,295.173 251.785 C 294.483 250.253,293.509 248.455,293.007 247.789 C 292.505 247.123,291.491 245.323,290.754 243.789 C 290.016 242.255,289.311 240.910,289.187 240.800 C 288.614 240.292,287.288 238.066,286.806 236.800 C 286.512 236.030,285.879 234.860,285.399 234.200 C 284.138 232.467,282.400 229.257,282.400 228.661 C 282.400 228.380,281.860 227.632,281.200 227.000 C 280.540 226.368,280.000 225.692,280.000 225.500 C 280.000 224.749,277.917 220.648,276.831 219.261 C 276.202 218.458,275.478 217.139,275.223 216.332 C 274.968 215.524,274.226 214.128,273.575 213.229 C 272.924 212.331,272.090 210.832,271.721 209.898 C 271.352 208.964,270.363 207.072,269.525 205.693 C 268.686 204.314,268.000 203.081,268.000 202.953 C 268.000 202.472,266.609 199.778,266.081 199.238 C 265.779 198.928,264.785 197.128,263.871 195.238 C 262.958 193.347,262.111 191.710,261.991 191.600 C 261.870 191.490,260.888 189.960,259.808 188.200 C 257.704 184.770,256.140 182.653,254.157 180.552 C 253.474 179.828,252.586 178.732,252.183 178.117 C 251.781 177.503,250.924 176.550,250.278 176.000 C 249.633 175.450,248.467 174.325,247.688 173.500 C 246.909 172.675,246.112 172.000,245.917 172.000 C 245.722 172.000,244.662 171.100,243.562 170.000 C 242.462 168.900,241.362 168.000,241.117 168.000 C 240.873 168.000,239.698 167.264,238.506 166.364 C 237.314 165.464,235.498 164.363,234.470 163.917 C 233.441 163.471,232.150 162.693,231.600 162.188 C 231.050 161.683,229.187 160.800,227.459 160.224 C 225.731 159.649,223.751 158.756,223.059 158.241 C 222.367 157.726,220.450 157.001,218.800 156.630 C 217.150 156.259,214.990 155.774,214.000 155.551 C 213.010 155.329,211.660 154.900,211.000 154.599 C 207.549 153.024,208.464 153.042,129.400 152.938 C 87.380 152.883,52.730 152.990,52.400 153.176 M205.800 154.481 C 207.120 154.822,209.550 155.463,211.200 155.907 C 212.850 156.351,215.100 156.834,216.200 156.980 C 218.471 157.283,221.556 158.332,222.299 159.055 C 222.574 159.323,224.284 160.106,226.099 160.797 C 227.915 161.488,230.120 162.549,231.000 163.155 C 231.880 163.761,233.410 164.669,234.400 165.172 C 235.390 165.676,236.290 166.215,236.400 166.370 C 236.669 166.751,240.079 169.041,240.674 169.241 C 242.149 169.736,252.674 180.012,254.358 182.600 C 254.930 183.480,255.650 184.464,255.958 184.787 C 256.265 185.110,257.255 186.559,258.158 188.008 C 259.061 189.458,260.025 190.993,260.300 191.422 C 260.576 191.850,261.712 193.996,262.825 196.191 C 263.938 198.387,264.996 200.277,265.175 200.391 C 265.355 200.506,266.106 201.860,266.844 203.400 C 267.583 204.940,268.685 206.902,269.293 207.760 C 269.902 208.618,270.400 209.518,270.401 209.760 C 270.401 210.002,271.263 211.640,272.316 213.400 C 273.370 215.160,274.567 217.316,274.977 218.190 C 275.387 219.065,275.998 220.055,276.333 220.390 C 276.669 220.726,277.528 222.264,278.242 223.810 C 278.956 225.355,279.987 227.101,280.533 227.690 C 281.078 228.278,281.751 229.444,282.026 230.280 C 282.302 231.116,282.857 232.340,283.259 233.000 C 285.685 236.981,290.000 244.789,290.000 245.197 C 290.000 245.410,290.605 246.533,291.345 247.692 C 292.730 249.863,294.962 253.973,298.611 261.071 C 299.762 263.310,301.086 265.678,301.552 266.333 C 302.018 266.988,302.401 267.766,302.402 268.062 C 302.403 268.358,302.948 269.410,303.615 270.400 C 304.281 271.390,305.383 273.370,306.065 274.800 C 306.747 276.230,307.546 277.678,307.840 278.018 C 308.135 278.358,309.070 279.978,309.919 281.618 C 311.370 284.425,312.863 287.008,315.454 291.200 C 316.066 292.190,317.143 294.194,317.847 295.654 C 318.551 297.114,319.318 298.426,319.551 298.569 C 319.974 298.831,322.400 303.642,322.400 304.219 C 322.400 304.387,322.847 305.110,323.392 305.825 C 323.938 306.541,324.667 307.998,325.012 309.063 C 325.680 311.123,326.129 312.250,327.069 314.233 C 330.257 320.955,330.215 337.832,326.994 344.000 C 326.394 345.149,325.439 347.319,324.838 348.899 C 324.611 349.497,323.467 351.384,322.297 353.093 C 320.397 355.868,319.577 356.875,316.841 359.800 C 314.029 362.805,304.963 368.498,302.207 368.988 C 301.331 369.144,299.452 369.815,298.031 370.479 C 293.866 372.426,294.074 372.421,220.195 372.307 C 147.807 372.196,148.403 372.209,147.200 370.759 C 146.917 370.418,144.569 369.408,142.066 368.549 C 140.892 368.147,139.182 367.141,138.266 366.314 C 137.350 365.488,136.445 364.809,136.257 364.806 C 135.860 364.799,130.000 358.921,130.000 358.530 C 130.000 358.265,127.600 354.363,127.213 354.000 C 127.096 353.890,126.713 353.170,126.362 352.400 C 126.012 351.630,124.977 349.456,124.062 347.569 C 123.148 345.683,122.400 343.990,122.400 343.809 C 122.400 343.628,121.578 341.752,120.572 339.640 C 119.567 337.528,118.594 335.440,118.411 335.000 C 118.227 334.560,117.249 332.453,116.238 330.318 C 115.227 328.183,114.400 326.313,114.400 326.163 C 114.400 326.012,113.410 323.845,112.200 321.347 C 110.990 318.850,110.000 316.621,110.000 316.396 C 110.000 315.823,107.903 311.829,107.516 311.667 C 107.342 311.593,107.200 311.351,107.200 311.127 C 107.200 310.726,106.276 308.450,105.566 307.105 C 105.365 306.723,105.200 306.216,105.200 305.977 C 105.200 305.739,104.657 304.755,103.994 303.791 C 103.330 302.827,102.677 301.486,102.542 300.811 C 102.407 300.136,102.140 299.486,101.948 299.368 C 101.757 299.250,101.600 298.912,101.600 298.617 C 101.600 298.323,100.920 296.938,100.089 295.541 C 99.258 294.143,98.338 292.280,98.043 291.400 C 97.748 290.520,97.011 288.980,96.405 287.978 C 95.799 286.976,95.177 285.716,95.023 285.178 C 94.868 284.640,93.871 282.400,92.806 280.200 C 90.634 275.709,89.600 273.398,89.600 273.032 C 89.600 272.895,89.176 272.113,88.658 271.292 C 88.141 270.471,87.589 269.350,87.433 268.800 C 87.111 267.663,87.045 267.508,84.800 262.600 C 82.761 258.143,82.638 257.866,81.608 255.400 C 81.148 254.300,80.630 253.130,80.457 252.800 C 78.737 249.530,78.203 248.340,77.782 246.848 C 77.634 246.324,76.903 244.884,76.157 243.648 C 75.412 242.411,74.802 241.121,74.801 240.781 C 74.800 240.259,73.750 238.016,71.719 234.200 C 71.097 233.032,70.490 231.540,70.170 230.400 C 70.016 229.850,69.375 228.648,68.745 227.728 C 68.115 226.808,67.600 225.803,67.600 225.495 C 67.600 225.186,67.481 224.814,67.335 224.668 C 67.189 224.522,66.756 223.513,66.373 222.426 C 65.990 221.339,65.318 220.064,64.880 219.594 C 64.441 219.123,63.517 217.238,62.824 215.404 C 62.132 213.570,61.329 211.873,61.039 211.633 C 60.750 211.392,59.911 209.622,59.174 207.698 C 58.438 205.774,57.724 204.110,57.588 204.000 C 57.136 203.636,56.063 201.430,55.349 199.400 C 54.962 198.300,54.231 196.729,53.723 195.908 C 53.215 195.087,52.800 194.305,52.800 194.168 C 52.800 194.032,52.512 193.264,52.159 192.460 C 51.807 191.657,51.369 190.640,51.187 190.200 C 51.004 189.760,50.054 187.690,49.074 185.600 C 48.094 183.510,46.966 180.900,46.567 179.800 C 46.168 178.700,45.731 177.710,45.596 177.600 C 43.059 175.530,42.041 164.619,44.066 161.200 C 46.124 157.725,51.295 154.222,54.864 153.886 C 60.740 153.331,203.527 153.894,205.800 154.481 " stroke="none" fill="#c0eebf" fill-rule="evenodd"></path><path id="path2" d="M208.100 55.096 C 209.365 55.175,211.435 55.175,212.700 55.096 C 213.965 55.016,212.930 54.951,210.400 54.951 C 207.870 54.951,206.835 55.016,208.100 55.096 M201.400 55.600 L 200.600 55.944 201.400 55.932 C 201.840 55.926,202.650 55.776,203.200 55.600 L 204.200 55.280 203.200 55.268 C 202.650 55.262,201.840 55.411,201.400 55.600 M218.200 55.600 C 218.640 55.789,219.360 55.944,219.800 55.944 L 220.600 55.944 219.800 55.600 C 219.360 55.411,218.640 55.256,218.200 55.256 L 217.400 55.256 218.200 55.600 M198.042 56.837 C 197.075 57.266,196.368 57.702,196.472 57.806 C 196.576 57.910,197.548 57.555,198.631 57.018 C 200.974 55.857,200.548 55.725,198.042 56.837 M227.200 58.800 C 227.530 59.013,228.070 59.188,228.400 59.188 C 228.933 59.188,228.933 59.145,228.400 58.800 C 228.070 58.587,227.530 58.412,227.200 58.412 C 226.667 58.412,226.667 58.455,227.200 58.800 M189.362 60.722 C 188.063 61.560,186.730 62.347,186.400 62.472 C 185.422 62.842,179.042 67.200,179.478 67.200 C 179.698 67.200,181.357 66.210,183.164 65.000 C 184.972 63.790,186.575 62.800,186.727 62.800 C 186.879 62.800,187.889 62.170,188.972 61.400 C 190.055 60.630,191.169 60.000,191.447 60.000 C 191.725 60.000,192.064 59.820,192.200 59.600 C 192.677 58.829,191.703 59.214,189.362 60.722 M231.400 60.800 C 231.798 61.240,232.304 61.600,232.523 61.600 C 232.743 61.600,232.507 61.240,232.000 60.800 C 231.493 60.360,230.987 60.000,230.877 60.000 C 230.766 60.000,231.002 60.360,231.400 60.800 M235.674 63.500 C 236.435 64.105,237.375 64.918,237.763 65.306 C 238.152 65.694,239.115 66.504,239.904 67.106 C 240.693 67.708,250.742 77.560,262.234 89.000 C 273.726 100.440,285.439 112.084,288.264 114.877 C 291.089 117.669,297.185 123.789,301.811 128.477 C 310.365 137.144,315.861 142.447,314.791 141.000 C 314.466 140.560,313.517 139.570,312.683 138.800 C 311.848 138.030,308.068 134.272,304.283 130.450 C 300.497 126.627,293.208 119.337,288.084 114.250 C 282.961 109.162,270.259 96.540,259.858 86.200 C 249.458 75.860,240.510 67.054,239.974 66.631 C 239.438 66.208,238.103 65.083,237.007 64.131 C 235.911 63.179,234.851 62.400,234.652 62.400 C 234.453 62.400,234.913 62.895,235.674 63.500 M176.854 68.409 C 176.126 69.074,174.889 69.886,174.104 70.214 C 173.319 70.542,172.769 70.903,172.882 71.015 C 172.995 71.128,173.813 70.832,174.701 70.359 C 176.527 69.384,179.213 67.202,178.589 67.201 C 178.363 67.200,177.583 67.744,176.854 68.409 M169.800 72.800 C 169.402 73.240,169.166 73.600,169.277 73.600 C 169.387 73.600,169.893 73.240,170.400 72.800 C 170.907 72.360,171.143 72.000,170.923 72.000 C 170.704 72.000,170.198 72.360,169.800 72.800 M163.519 76.719 C 162.045 77.738,160.909 78.642,160.995 78.728 C 161.155 78.888,166.800 75.211,166.800 74.947 C 166.800 74.572,166.000 75.005,163.519 76.719 M158.120 80.152 C 157.944 80.455,157.170 81.084,156.400 81.550 C 155.630 82.016,155.180 82.396,155.400 82.396 C 155.896 82.394,157.646 81.237,158.568 80.300 C 158.947 79.915,159.073 79.600,158.848 79.600 C 158.624 79.600,158.296 79.848,158.120 80.152 M152.443 84.044 C 151.917 84.471,151.557 84.890,151.643 84.976 C 151.730 85.061,152.230 84.782,152.757 84.356 C 153.283 83.929,153.643 83.510,153.557 83.424 C 153.470 83.339,152.970 83.618,152.443 84.044 M148.600 86.463 C 146.492 87.779,143.769 90.000,144.264 90.000 C 144.425 90.000,145.016 89.567,145.578 89.037 C 146.140 88.507,147.680 87.428,149.000 86.638 C 150.320 85.848,151.220 85.205,151.000 85.209 C 150.780 85.212,149.700 85.777,148.600 86.463 M140.437 92.025 C 139.697 92.671,139.251 93.194,139.446 93.187 C 139.902 93.171,142.142 91.209,141.938 91.004 C 141.853 90.919,141.178 91.379,140.437 92.025 M137.000 94.190 C 136.120 94.732,135.559 95.181,135.753 95.188 C 136.155 95.202,138.800 93.622,138.800 93.367 C 138.800 93.099,138.684 93.152,137.000 94.190 M133.544 96.354 C 132.744 96.929,131.754 97.627,131.344 97.904 C 130.935 98.182,131.320 98.051,132.200 97.613 C 134.003 96.717,135.427 95.684,135.171 95.458 C 135.077 95.375,134.345 95.778,133.544 96.354 M126.600 100.754 C 125.280 101.604,122.490 103.402,120.401 104.750 C 118.311 106.097,116.718 107.200,116.861 107.200 C 117.003 107.200,118.198 106.525,119.517 105.700 C 120.835 104.875,123.470 103.226,125.372 102.036 C 128.311 100.198,129.648 99.188,129.124 99.204 C 129.056 99.206,127.920 99.903,126.600 100.754 M115.533 107.545 C 115.401 107.887,112.971 109.474,107.208 112.980 C 104.309 114.744,103.638 115.422,105.999 114.200 C 107.640 113.352,116.400 107.614,116.400 107.388 C 116.400 107.056,115.671 107.188,115.533 107.545 M97.106 119.506 C 96.071 120.304,95.302 121.036,95.399 121.132 C 95.495 121.228,96.192 120.763,96.948 120.099 C 97.704 119.436,98.565 118.806,98.861 118.701 C 99.158 118.596,99.307 118.407,99.194 118.282 C 99.081 118.157,98.141 118.708,97.106 119.506 M90.931 123.515 C 90.309 124.128,88.945 125.239,87.900 125.983 C 86.855 126.727,86.000 127.454,86.000 127.598 C 86.000 128.085,87.847 129.600,88.426 129.588 C 88.802 129.580,88.724 129.416,88.200 129.114 C 87.245 128.562,86.246 127.608,86.452 127.446 C 86.534 127.382,87.410 126.767,88.400 126.079 C 90.164 124.854,92.763 122.400,92.297 122.400 C 92.168 122.400,91.553 122.902,90.931 123.515 M115.700 129.900 C 129.945 129.958,153.255 129.958,167.500 129.900 C 181.745 129.842,170.090 129.794,141.600 129.794 C 113.110 129.794,101.455 129.842,115.700 129.900 M198.000 130.417 C 199.210 130.584,200.830 130.717,201.600 130.713 L 203.000 130.705 201.800 130.400 C 201.140 130.232,199.520 130.099,198.200 130.104 L 195.800 130.113 198.000 130.417 M205.342 131.452 C 206.410 131.780,207.372 131.961,207.480 131.854 C 207.708 131.625,204.878 130.793,204.000 130.830 C 203.670 130.844,204.274 131.124,205.342 131.452 M211.200 132.800 C 211.750 132.976,212.740 133.117,213.400 133.113 L 214.600 133.105 213.400 132.800 C 212.740 132.632,211.750 132.491,211.200 132.487 L 210.200 132.480 211.200 132.800 M215.400 133.600 C 216.584 134.109,217.987 134.109,217.200 133.600 C 216.870 133.387,216.150 133.222,215.600 133.234 C 214.684 133.254,214.667 133.285,215.400 133.600 M220.588 135.175 C 222.122 135.849,223.562 136.390,223.788 136.377 C 224.371 136.344,220.053 134.419,218.821 134.163 C 218.259 134.046,219.055 134.502,220.588 135.175 M224.800 136.800 C 225.130 137.013,225.670 137.188,226.000 137.188 C 226.533 137.188,226.533 137.145,226.000 136.800 C 225.670 136.587,225.130 136.412,224.800 136.412 C 224.267 136.412,224.267 136.455,224.800 136.800 M233.400 140.447 C 236.480 141.995,239.360 143.581,239.800 143.971 C 240.479 144.574,242.530 145.592,241.988 145.057 C 240.633 143.721,229.195 137.569,228.155 137.616 C 227.960 137.625,230.320 138.899,233.400 140.447 M315.607 141.684 C 315.598 142.042,325.284 151.649,325.468 151.465 C 325.542 151.391,324.141 149.906,322.354 148.165 C 320.567 146.424,318.319 144.190,317.359 143.200 C 316.399 142.210,315.611 141.528,315.607 141.684 M245.465 147.548 C 246.529 148.399,247.479 149.025,247.576 148.939 C 247.673 148.852,247.403 148.534,246.976 148.232 C 246.549 147.929,245.767 147.304,245.239 146.841 C 244.710 146.378,244.110 146.000,243.904 146.000 C 243.699 146.000,244.401 146.696,245.465 147.548 M250.350 151.072 C 250.597 151.552,251.384 152.332,252.099 152.807 C 253.008 153.409,253.158 153.448,252.596 152.935 C 252.154 152.531,251.367 151.750,250.847 151.200 C 250.005 150.310,249.950 150.296,250.350 151.072 M326.801 153.396 C 327.570 154.273,328.245 155.068,328.300 155.162 C 328.355 155.256,328.487 155.247,328.593 155.141 C 328.699 155.035,328.024 154.240,327.093 153.374 L 325.401 151.800 326.801 153.396 M54.864 153.886 C 51.295 154.222,46.124 157.725,44.066 161.200 C 42.041 164.619,43.059 175.530,45.596 177.600 C 45.731 177.710,46.168 178.700,46.567 179.800 C 46.966 180.900,48.094 183.510,49.074 185.600 C 50.054 187.690,51.004 189.760,51.187 190.200 C 51.369 190.640,51.807 191.657,52.159 192.460 C 52.512 193.264,52.800 194.032,52.800 194.168 C 52.800 194.305,53.215 195.087,53.723 195.908 C 54.231 196.729,54.962 198.300,55.349 199.400 C 56.063 201.430,57.136 203.636,57.588 204.000 C 57.724 204.110,58.438 205.774,59.174 207.698 C 59.911 209.622,60.750 211.392,61.039 211.633 C 61.329 211.873,62.132 213.570,62.824 215.404 C 63.517 217.238,64.441 219.123,64.880 219.594 C 65.318 220.064,65.990 221.339,66.373 222.426 C 66.756 223.513,67.189 224.522,67.335 224.668 C 67.481 224.814,67.600 225.186,67.600 225.495 C 67.600 225.803,68.115 226.808,68.745 227.728 C 69.375 228.648,70.016 229.850,70.170 230.400 C 70.490 231.540,71.097 233.032,71.719 234.200 C 73.750 238.016,74.800 240.259,74.801 240.781 C 74.802 241.121,75.412 242.411,76.157 243.648 C 76.903 244.884,77.634 246.324,77.782 246.848 C 78.203 248.340,78.737 249.530,80.457 252.800 C 80.630 253.130,81.148 254.300,81.608 255.400 C 82.638 257.866,82.761 258.143,84.800 262.600 C 87.045 267.508,87.111 267.663,87.433 268.800 C 87.589 269.350,88.141 270.471,88.658 271.292 C 89.176 272.113,89.600 272.895,89.600 273.032 C 89.600 273.398,90.634 275.709,92.806 280.200 C 93.871 282.400,94.868 284.640,95.023 285.178 C 95.177 285.716,95.799 286.976,96.405 287.978 C 97.011 288.980,97.748 290.520,98.043 291.400 C 98.338 292.280,99.258 294.143,100.089 295.541 C 100.920 296.938,101.600 298.323,101.600 298.617 C 101.600 298.912,101.757 299.250,101.948 299.368 C 102.140 299.486,102.407 300.136,102.542 300.811 C 102.677 301.486,103.330 302.827,103.994 303.791 C 104.657 304.755,105.200 305.739,105.200 305.977 C 105.200 306.216,105.365 306.723,105.566 307.105 C 106.276 308.450,107.200 310.726,107.200 311.127 C 107.200 311.351,107.342 311.593,107.516 311.667 C 107.903 311.829,110.000 315.823,110.000 316.396 C 110.000 316.621,110.990 318.850,112.200 321.347 C 113.410 323.845,114.400 326.012,114.400 326.163 C 114.400 326.313,115.227 328.183,116.238 330.318 C 117.249 332.453,118.227 334.560,118.411 335.000 C 118.594 335.440,119.567 337.528,120.572 339.640 C 121.578 341.752,122.400 343.628,122.400 343.809 C 122.400 343.990,123.148 345.683,124.062 347.569 C 124.977 349.456,126.012 351.630,126.362 352.400 C 126.713 353.170,127.096 353.890,127.213 354.000 C 127.600 354.363,130.000 358.265,130.000 358.530 C 130.000 358.921,135.860 364.799,136.257 364.806 C 136.445 364.809,137.350 365.488,138.266 366.314 C 139.182 367.141,140.892 368.147,142.066 368.549 C 144.569 369.408,146.917 370.418,147.200 370.759 C 148.403 372.209,147.807 372.196,220.195 372.307 C 294.074 372.421,293.866 372.426,298.031 370.479 C 299.452 369.815,301.331 369.144,302.207 368.988 C 303.663 368.729,304.936 368.090,309.751 365.200 C 311.743 364.004,315.795 360.918,316.841 359.800 C 319.577 356.875,320.397 355.868,322.297 353.093 C 323.467 351.384,324.611 349.497,324.838 348.899 C 325.439 347.319,326.394 345.149,326.994 344.000 C 330.215 337.832,330.257 320.955,327.069 314.233 C 326.129 312.250,325.680 311.123,325.012 309.063 C 324.667 307.998,323.938 306.541,323.392 305.825 C 322.847 305.110,322.400 304.387,322.400 304.219 C 322.400 303.642,319.974 298.831,319.551 298.569 C 319.318 298.426,318.551 297.114,317.847 295.654 C 317.143 294.194,316.066 292.190,315.454 291.200 C 312.863 287.008,311.370 284.425,309.919 281.618 C 309.070 279.978,308.135 278.358,307.840 278.018 C 307.546 277.678,306.747 276.230,306.065 274.800 C 305.383 273.370,304.281 271.390,303.615 270.400 C 302.948 269.410,302.403 268.358,302.402 268.062 C 302.401 267.766,302.018 266.988,301.552 266.333 C 301.086 265.678,299.762 263.310,298.611 261.071 C 294.962 253.973,292.730 249.863,291.345 247.692 C 290.605 246.533,290.000 245.410,290.000 245.197 C 290.000 244.789,285.685 236.981,283.259 233.000 C 282.857 232.340,282.302 231.116,282.026 230.280 C 281.751 229.444,281.078 228.278,280.533 227.690 C 279.987 227.101,278.956 225.355,278.242 223.810 C 277.528 222.264,276.669 220.726,276.333 220.390 C 275.998 220.055,275.387 219.065,274.977 218.190 C 274.567 217.316,273.370 215.160,272.316 213.400 C 271.263 211.640,270.401 210.002,270.401 209.760 C 270.400 209.518,269.902 208.618,269.293 207.760 C 268.685 206.902,267.583 204.940,266.844 203.400 C 266.106 201.860,265.355 200.506,265.175 200.391 C 264.996 200.277,263.938 198.387,262.825 196.191 C 261.712 193.996,260.576 191.850,260.300 191.422 C 260.025 190.993,259.061 189.458,258.158 188.008 C 257.255 186.559,256.265 185.110,255.958 184.787 C 255.650 184.464,254.930 183.480,254.358 182.600 C 252.674 180.012,242.149 169.736,240.674 169.241 C 240.079 169.041,236.669 166.751,236.400 166.370 C 236.290 166.215,235.390 165.676,234.400 165.172 C 233.410 164.669,231.880 163.761,231.000 163.155 C 230.120 162.549,227.915 161.488,226.099 160.797 C 224.284 160.106,222.574 159.323,222.299 159.055 C 221.556 158.332,218.471 157.283,216.200 156.980 C 215.100 156.834,212.850 156.351,211.200 155.907 C 209.550 155.463,207.120 154.822,205.800 154.481 C 203.527 153.894,60.740 153.331,54.864 153.886 M201.885 154.723 C 203.912 154.970,206.619 155.516,207.902 155.937 C 209.185 156.358,211.397 156.829,212.817 156.984 C 216.658 157.404,219.968 158.336,221.362 159.390 C 222.043 159.905,223.733 160.696,225.117 161.147 C 227.790 162.019,230.800 163.552,230.800 164.042 C 230.800 164.204,231.295 164.449,231.900 164.588 C 232.505 164.726,233.720 165.369,234.600 166.017 C 235.480 166.666,237.280 167.903,238.600 168.767 C 239.920 169.631,241.450 170.782,242.000 171.324 C 242.550 171.867,243.738 172.787,244.639 173.368 C 245.541 173.950,246.500 174.840,246.771 175.345 C 247.041 175.851,247.795 176.579,248.446 176.964 C 249.097 177.348,250.061 178.346,250.588 179.182 C 251.116 180.017,252.009 181.064,252.574 181.508 C 253.138 181.952,253.600 182.492,253.600 182.707 C 253.600 182.923,254.564 184.427,255.742 186.050 C 256.920 187.672,258.378 189.900,258.982 191.000 C 259.586 192.100,260.311 193.270,260.593 193.600 C 260.875 193.930,261.606 195.280,262.217 196.600 C 262.828 197.920,263.810 199.720,264.399 200.600 C 264.988 201.480,265.985 203.280,266.616 204.600 C 267.246 205.920,268.245 207.630,268.834 208.400 C 269.424 209.170,270.032 210.338,270.185 210.997 C 270.338 211.655,271.081 213.052,271.835 214.101 C 272.589 215.151,273.757 217.177,274.432 218.605 C 275.106 220.032,275.793 221.200,275.958 221.200 C 276.123 221.200,276.662 222.055,277.157 223.100 C 278.675 226.311,279.278 227.361,280.204 228.400 C 280.694 228.950,281.422 230.300,281.822 231.400 C 282.221 232.500,283.235 234.374,284.074 235.565 C 284.913 236.756,285.600 237.965,285.600 238.253 C 285.600 238.812,286.580 240.687,288.394 243.600 C 289.010 244.590,289.645 245.836,289.806 246.368 C 289.966 246.901,290.673 248.251,291.377 249.368 C 292.082 250.486,293.274 252.660,294.027 254.200 C 294.780 255.740,295.500 257.090,295.628 257.200 C 295.893 257.428,296.652 258.835,298.218 262.000 C 298.816 263.210,299.822 264.952,300.453 265.872 C 301.084 266.792,301.600 267.709,301.600 267.911 C 301.600 268.477,302.840 270.867,303.825 272.200 C 304.313 272.860,305.112 274.300,305.600 275.400 C 306.088 276.500,306.910 277.962,307.425 278.648 C 307.940 279.335,308.893 281.045,309.541 282.448 C 310.190 283.852,311.077 285.374,311.513 285.832 C 311.948 286.289,312.851 287.845,313.519 289.288 C 314.187 290.731,314.923 292.029,315.156 292.173 C 315.388 292.316,316.330 293.972,317.248 295.852 C 318.167 297.732,319.162 299.364,319.459 299.478 C 319.757 299.592,320.000 299.896,320.000 300.154 C 320.000 300.825,322.748 306.474,323.456 307.260 C 323.784 307.623,324.289 308.793,324.579 309.860 C 324.870 310.927,325.671 313.240,326.359 315.000 C 328.964 321.656,329.483 337.007,327.242 341.069 C 327.020 341.471,326.542 342.520,326.179 343.400 C 325.816 344.280,325.368 345.360,325.184 345.800 C 325.001 346.240,324.728 347.050,324.579 347.600 C 324.254 348.798,320.242 354.964,318.813 356.462 C 318.256 357.047,317.314 358.138,316.720 358.889 C 316.126 359.639,315.001 360.597,314.220 361.017 C 313.439 361.438,312.800 361.908,312.800 362.063 C 312.800 362.217,311.405 363.198,309.700 364.243 C 307.995 365.288,306.308 366.387,305.951 366.687 C 305.208 367.311,301.312 368.798,300.406 368.804 C 300.073 368.806,298.810 369.278,297.600 369.852 C 292.928 372.070,295.420 371.999,221.600 371.995 C 148.007 371.990,151.854 372.099,147.134 369.893 C 145.960 369.344,144.550 368.763,144.000 368.600 C 142.120 368.045,139.731 366.840,139.171 366.165 C 138.864 365.795,137.889 365.037,137.006 364.483 C 136.123 363.928,135.074 363.098,134.676 362.637 C 134.277 362.177,133.620 361.414,133.215 360.942 C 132.809 360.469,132.214 359.929,131.891 359.742 C 131.568 359.554,130.900 358.590,130.406 357.600 C 129.913 356.610,129.053 355.193,128.497 354.451 C 127.940 353.709,126.899 351.729,126.183 350.051 C 125.467 348.373,124.233 345.749,123.440 344.219 C 122.648 342.690,122.000 341.225,122.000 340.965 C 122.000 340.705,121.302 339.077,120.449 337.346 C 119.596 335.616,118.571 333.300,118.170 332.200 C 117.769 331.100,117.123 329.660,116.734 329.000 C 115.885 327.561,114.400 324.528,114.400 324.234 C 114.400 323.855,112.301 319.405,112.026 319.200 C 111.676 318.939,110.000 314.982,110.000 314.416 C 110.000 314.176,109.310 312.860,108.466 311.490 C 107.623 310.121,106.692 308.190,106.397 307.200 C 106.103 306.210,105.435 304.816,104.913 304.103 C 103.744 302.506,102.421 299.645,102.409 298.691 C 102.401 298.067,100.615 294.933,99.963 294.400 C 99.828 294.290,99.345 293.112,98.889 291.783 C 97.937 289.012,97.123 287.089,96.778 286.800 C 96.343 286.435,95.285 284.228,94.572 282.200 C 94.186 281.100,93.447 279.525,92.930 278.701 C 92.414 277.876,91.705 276.346,91.354 275.301 C 91.004 274.255,90.042 272.050,89.216 270.400 C 88.390 268.750,87.579 266.950,87.413 266.400 C 87.248 265.850,86.075 263.240,84.807 260.600 C 83.540 257.960,82.369 255.350,82.206 254.800 C 82.044 254.250,81.418 252.900,80.816 251.800 C 80.214 250.700,79.493 249.170,79.213 248.400 C 78.566 246.617,77.389 244.139,76.457 242.600 C 76.057 241.940,75.333 240.320,74.847 239.000 C 74.362 237.680,73.622 236.126,73.204 235.546 C 72.384 234.409,70.400 229.767,70.400 228.985 C 70.400 228.723,69.863 227.899,69.206 227.154 C 68.550 226.409,68.010 225.562,68.006 225.272 C 67.997 224.457,65.564 218.800,65.223 218.800 C 65.057 218.800,64.606 218.035,64.220 217.100 C 63.834 216.165,63.379 215.124,63.210 214.787 C 63.040 214.450,62.775 213.595,62.619 212.887 C 62.464 212.179,62.187 211.600,62.004 211.600 C 61.621 211.600,60.317 208.938,59.556 206.600 C 59.269 205.720,58.532 204.226,57.917 203.280 C 57.303 202.334,56.800 201.438,56.800 201.290 C 56.800 200.692,54.581 195.309,53.795 194.000 C 53.332 193.230,52.621 191.700,52.214 190.600 C 51.807 189.500,50.602 186.766,49.537 184.525 C 48.472 182.284,47.600 180.319,47.600 180.157 C 47.600 179.995,47.074 178.769,46.432 177.432 C 43.574 171.483,42.886 168.378,43.651 164.873 C 44.083 162.894,44.884 161.055,45.600 160.400 C 45.720 160.290,46.107 159.745,46.460 159.190 C 46.812 158.634,47.798 157.824,48.650 157.390 C 49.503 156.955,50.883 156.187,51.719 155.683 C 52.832 155.011,54.221 154.677,56.919 154.431 C 62.638 153.909,197.424 154.181,201.885 154.723 M258.490 158.907 C 260.257 160.718,262.108 162.830,262.606 163.600 C 263.488 164.966,266.000 167.574,266.000 167.123 C 266.000 166.998,265.325 166.162,264.500 165.265 C 263.675 164.368,262.190 162.625,261.200 161.391 C 259.077 158.746,256.864 156.464,255.939 155.968 C 255.576 155.773,256.724 157.096,258.490 158.907 M329.845 157.300 C 329.977 157.685,330.233 158.000,330.414 158.000 C 330.594 158.000,331.398 159.080,332.200 160.400 C 333.846 163.110,334.543 163.676,333.126 161.152 C 332.075 159.281,329.479 156.233,329.845 157.300 M334.000 163.571 C 334.000 164.303,336.943 170.170,337.090 169.730 C 337.152 169.544,336.482 167.956,335.602 166.203 C 334.721 164.450,334.000 163.265,334.000 163.571 M266.255 168.000 C 266.415 168.330,267.488 169.982,268.637 171.671 C 269.787 173.360,270.846 175.115,270.991 175.571 C 271.135 176.027,271.409 176.400,271.599 176.400 C 272.032 176.400,270.225 173.124,268.615 170.990 C 267.947 170.104,267.077 168.934,266.681 168.390 C 266.286 167.845,266.094 167.670,266.255 168.000 M337.680 173.200 C 337.680 173.750,337.824 174.650,338.000 175.200 L 338.320 176.200 338.320 175.200 C 338.320 174.650,338.176 173.750,338.000 173.200 L 337.680 172.200 337.680 173.200 M338.874 185.400 C 338.863 189.084,338.989 191.091,339.200 190.600 C 339.640 189.576,339.656 183.092,339.223 181.000 C 338.990 179.873,338.887 181.172,338.874 185.400 M276.281 184.187 C 276.677 184.731,277.143 185.181,277.319 185.187 C 277.494 185.194,277.314 184.756,276.919 184.213 C 276.523 183.669,276.057 183.219,275.881 183.213 C 275.706 183.206,275.886 183.644,276.281 184.187 M280.860 191.995 C 281.346 192.652,281.819 193.115,281.911 193.022 C 282.134 192.799,280.687 190.829,280.288 190.813 C 280.116 190.806,280.374 191.338,280.860 191.995 M337.778 196.178 C 337.627 196.981,337.594 197.727,337.704 197.837 C 337.814 197.947,338.027 197.381,338.178 196.578 C 338.328 195.775,338.362 195.028,338.252 194.918 C 338.142 194.808,337.928 195.375,337.778 196.178 M284.364 198.200 C 285.058 199.557,285.587 200.222,285.594 199.744 C 285.597 199.494,285.230 198.864,284.777 198.344 C 284.131 197.602,284.042 197.571,284.364 198.200 M337.232 199.290 C 337.214 199.669,336.620 201.199,335.911 202.690 C 334.198 206.290,334.156 206.436,335.297 204.800 C 336.520 203.046,337.755 199.831,337.475 199.129 C 337.333 198.774,337.253 198.827,337.232 199.290 M286.400 202.233 C 286.400 202.387,287.120 203.654,288.000 205.047 C 288.880 206.440,289.600 207.730,289.600 207.914 C 289.600 208.097,289.869 208.596,290.198 209.024 C 291.268 210.413,289.644 206.808,288.357 204.937 C 287.720 204.012,287.200 203.074,287.200 202.852 C 287.200 202.629,287.020 202.336,286.800 202.200 C 286.580 202.064,286.400 202.079,286.400 202.233 M333.382 207.905 C 332.279 210.071,332.256 210.136,332.699 209.862 C 333.187 209.561,334.535 206.801,334.306 206.573 C 334.217 206.483,333.801 207.083,333.382 207.905 M330.851 211.864 C 330.163 212.670,329.600 213.504,329.600 213.718 C 329.600 213.933,330.001 213.589,330.491 212.954 C 330.982 212.319,331.612 211.562,331.891 211.271 C 332.395 210.748,332.539 210.400,332.251 210.400 C 332.169 210.400,331.539 211.059,330.851 211.864 M291.600 211.776 C 291.600 211.940,291.960 212.531,292.400 213.091 C 292.840 213.650,293.200 213.931,293.200 213.715 C 293.200 213.499,292.840 212.907,292.400 212.400 C 291.960 211.893,291.600 211.612,291.600 211.776 M293.602 215.200 C 294.701 217.609,295.417 219.014,295.640 219.200 C 295.772 219.310,296.102 219.820,296.373 220.334 C 296.643 220.848,296.949 221.184,297.053 221.080 C 297.156 220.977,296.692 220.026,296.020 218.968 C 295.349 217.909,294.796 216.854,294.791 216.622 C 294.786 216.390,294.414 215.750,293.964 215.200 L 293.146 214.200 293.602 215.200 M327.600 216.000 C 327.050 216.430,326.797 216.786,327.038 216.791 C 327.279 216.796,327.802 216.440,328.200 216.000 C 329.112 214.992,328.888 214.992,327.600 216.000 M323.611 219.820 C 322.847 220.359,322.397 220.799,322.611 220.798 C 322.825 220.797,323.540 220.353,324.200 219.812 C 325.741 218.549,325.405 218.553,323.611 219.820 M320.641 222.427 C 319.783 223.072,319.250 223.600,319.456 223.600 C 319.662 223.600,320.453 223.067,321.215 222.416 C 322.987 220.902,322.661 220.908,320.641 222.427 M317.110 224.736 C 316.291 225.321,315.616 225.951,315.610 226.136 C 315.605 226.320,316.133 226.022,316.785 225.474 C 317.437 224.925,318.202 224.394,318.485 224.293 C 318.768 224.192,318.910 224.011,318.800 223.890 C 318.690 223.770,317.930 224.150,317.110 224.736 M299.210 225.759 C 299.194 226.317,301.804 230.092,302.935 231.146 C 303.850 231.999,304.098 232.049,305.474 231.654 L 307.000 231.216 305.364 231.402 C 303.479 231.617,302.869 231.126,300.596 227.559 C 299.840 226.372,299.216 225.561,299.210 225.759 M309.978 229.500 L 308.600 231.000 310.100 229.622 C 311.496 228.338,311.784 228.000,311.478 228.000 C 311.412 228.000,310.737 228.675,309.978 229.500 " stroke="none" fill="#acecac" fill-rule="evenodd"></path><path id="path3" d="M202.200 55.791 C 201.100 56.067,199.177 56.767,197.926 57.346 C 196.675 57.926,195.464 58.400,195.236 58.400 C 194.496 58.400,189.840 60.699,188.422 61.765 C 187.665 62.334,186.911 62.800,186.748 62.800 C 186.585 62.800,184.972 63.790,183.164 65.000 C 181.357 66.210,179.680 67.200,179.439 67.201 C 179.197 67.201,178.382 67.730,177.626 68.376 C 176.871 69.022,175.431 69.966,174.426 70.475 C 173.422 70.984,172.540 71.535,172.467 71.700 C 172.393 71.865,172.106 72.000,171.828 72.000 C 171.550 72.000,170.943 72.315,170.480 72.700 C 168.684 74.193,167.824 74.800,167.505 74.800 C 167.322 74.800,165.852 75.700,164.238 76.800 C 162.624 77.900,161.100 78.800,160.852 78.800 C 160.603 78.800,160.400 78.980,160.400 79.200 C 160.400 79.420,160.156 79.600,159.858 79.600 C 159.561 79.600,158.806 80.074,158.181 80.653 C 157.556 81.232,156.495 81.936,155.822 82.218 C 155.150 82.500,154.060 83.201,153.400 83.777 C 152.740 84.352,151.065 85.463,149.677 86.244 C 148.289 87.026,146.579 88.150,145.877 88.743 C 145.175 89.336,144.061 90.086,143.403 90.410 C 142.744 90.735,141.729 91.417,141.147 91.926 C 140.107 92.838,138.369 93.926,136.400 94.900 C 135.850 95.172,135.040 95.726,134.600 96.132 C 134.160 96.538,133.080 97.238,132.200 97.688 C 131.320 98.139,129.880 99.004,129.000 99.611 C 127.615 100.566,124.986 102.262,118.709 106.252 C 117.888 106.773,117.147 107.200,117.062 107.200 C 116.976 107.200,114.700 108.654,112.003 110.431 C 109.306 112.207,106.447 113.962,105.649 114.331 C 104.852 114.699,103.750 115.413,103.200 115.919 C 102.650 116.424,101.570 117.138,100.800 117.506 C 99.261 118.240,99.214 118.271,97.200 119.913 C 96.430 120.541,94.978 121.433,93.973 121.895 C 92.968 122.357,91.708 123.209,91.173 123.788 C 90.638 124.367,89.390 125.400,88.400 126.085 C 87.410 126.770,86.526 127.389,86.436 127.462 C 86.143 127.699,88.123 129.216,88.974 129.407 C 89.428 129.509,114.640 129.657,145.000 129.736 L 200.200 129.880 203.800 130.757 C 205.780 131.240,209.560 132.050,212.200 132.557 C 214.840 133.064,217.990 133.843,219.200 134.287 C 220.410 134.731,223.200 135.755,225.400 136.562 C 230.459 138.420,236.963 141.627,240.669 144.092 C 242.248 145.141,243.698 146.000,243.892 146.000 C 244.211 146.000,245.443 146.935,247.714 148.900 C 248.158 149.285,248.689 149.600,248.893 149.600 C 249.096 149.600,249.956 150.275,250.803 151.100 C 251.650 151.925,253.453 153.590,254.810 154.800 C 258.057 157.696,259.047 158.719,261.200 161.404 C 262.190 162.638,263.540 164.233,264.200 164.947 C 265.573 166.432,268.775 171.045,270.729 174.351 C 271.460 175.588,272.375 176.960,272.762 177.400 C 273.149 177.840,273.981 179.280,274.611 180.600 C 275.241 181.920,276.096 183.360,276.513 183.800 C 276.929 184.240,277.908 185.939,278.689 187.576 C 279.470 189.213,280.534 191.011,281.054 191.572 C 281.574 192.133,282.000 192.746,282.000 192.935 C 282.000 193.524,283.288 196.143,284.197 197.400 C 284.673 198.060,285.577 199.680,286.206 201.000 C 286.835 202.320,287.824 204.120,288.403 205.000 C 288.983 205.880,290.054 207.860,290.783 209.400 C 291.513 210.940,292.234 212.290,292.386 212.400 C 292.538 212.510,292.936 213.140,293.271 213.800 C 293.606 214.460,294.465 216.080,295.180 217.400 C 295.895 218.720,297.214 221.240,298.112 223.000 C 300.064 226.828,302.025 229.949,303.059 230.878 C 304.328 232.017,308.042 231.296,309.917 229.545 C 310.733 228.783,312.300 227.730,313.400 227.205 C 314.500 226.679,315.664 225.987,315.987 225.666 C 316.310 225.346,317.780 224.310,319.254 223.366 C 320.728 222.421,322.083 221.403,322.267 221.104 C 322.450 220.805,323.230 220.126,324.000 219.596 C 324.770 219.066,325.657 218.279,325.972 217.846 C 326.286 217.414,327.231 216.392,328.072 215.577 C 328.912 214.761,329.600 213.917,329.600 213.701 C 329.600 213.485,330.148 212.699,330.818 211.954 C 332.642 209.926,337.081 200.634,337.580 197.800 C 338.726 191.285,338.868 189.429,338.681 183.400 C 338.442 175.660,337.521 170.975,335.458 167.000 C 334.658 165.460,334.003 163.985,334.002 163.723 C 333.999 163.107,330.803 158.000,330.420 158.000 C 330.259 158.000,329.944 157.595,329.718 157.100 C 329.034 155.602,326.200 152.550,318.476 145.000 C 314.425 141.040,307.126 133.785,302.255 128.877 C 297.385 123.969,291.089 117.669,288.264 114.877 C 285.439 112.085,273.726 100.440,262.234 89.000 C 250.742 77.560,240.723 67.724,239.970 67.143 C 239.216 66.562,237.790 65.345,236.800 64.438 C 235.810 63.532,234.595 62.683,234.100 62.552 C 233.605 62.420,233.200 62.153,233.200 61.957 C 233.200 61.760,232.952 61.600,232.649 61.600 C 232.346 61.600,231.871 61.327,231.594 60.993 C 231.081 60.375,229.719 59.693,227.200 58.794 C 226.430 58.519,224.630 57.801,223.200 57.199 C 218.352 55.157,207.596 54.436,202.200 55.791 M216.123 56.458 C 217.705 56.710,219.270 57.130,219.600 57.391 C 220.310 57.952,222.707 58.829,226.700 59.990 C 228.295 60.454,229.600 61.004,229.600 61.212 C 229.600 61.655,232.570 63.600,233.246 63.600 C 233.500 63.600,234.162 64.095,234.717 64.700 C 235.271 65.305,236.158 66.090,236.687 66.444 C 238.497 67.656,243.266 72.205,253.331 82.319 C 258.869 87.884,266.255 95.264,269.745 98.719 C 273.235 102.174,284.507 113.370,294.794 123.600 C 305.080 133.830,314.105 142.756,314.848 143.435 C 315.592 144.114,316.470 144.970,316.800 145.337 C 317.130 145.704,318.030 146.617,318.800 147.365 C 323.801 152.221,329.600 158.730,329.600 159.485 C 329.600 159.753,330.107 160.563,330.726 161.286 C 331.345 162.009,332.178 163.500,332.578 164.600 C 332.978 165.700,333.462 166.771,333.653 166.980 C 333.844 167.189,334.000 167.656,334.000 168.018 C 334.000 168.380,334.341 168.985,334.758 169.362 C 335.175 169.739,335.612 170.532,335.730 171.124 C 337.049 177.758,337.185 179.114,337.192 185.669 C 337.196 189.558,337.006 193.698,336.768 194.869 C 336.097 198.179,335.502 200.145,334.974 200.800 C 334.490 201.400,333.400 203.762,332.391 206.400 C 332.096 207.170,331.341 208.430,330.713 209.200 C 329.189 211.070,329.121 211.170,328.209 212.900 C 327.774 213.725,327.306 214.400,327.168 214.400 C 326.667 214.400,324.400 216.823,324.400 217.358 C 324.400 217.661,323.733 218.226,322.917 218.613 C 321.351 219.356,320.036 220.664,320.013 221.500 C 320.006 221.775,319.772 222.000,319.494 222.000 C 318.636 222.000,315.927 223.612,314.668 224.871 C 314.010 225.529,312.525 226.485,311.369 226.997 C 310.213 227.508,308.956 228.401,308.575 228.981 C 307.347 230.856,303.636 230.351,302.832 228.200 C 302.503 227.320,302.092 226.540,301.917 226.467 C 301.743 226.393,301.600 226.156,301.600 225.940 C 301.600 225.724,301.164 224.974,300.631 224.273 C 300.098 223.573,299.532 222.476,299.372 221.836 C 299.212 221.195,298.238 219.305,297.207 217.636 C 296.177 215.966,295.133 214.015,294.888 213.301 C 294.643 212.587,293.967 211.379,293.387 210.618 C 292.242 209.118,290.800 206.461,290.800 205.852 C 290.800 205.644,290.110 204.557,289.266 203.437 C 288.422 202.317,287.428 200.573,287.056 199.561 C 286.685 198.550,285.861 197.140,285.225 196.428 C 284.590 195.716,283.855 194.564,283.592 193.867 C 282.761 191.663,281.827 189.955,280.965 189.063 C 280.506 188.589,279.794 187.252,279.383 186.092 C 278.972 184.933,278.156 183.493,277.570 182.892 C 276.983 182.292,276.165 180.837,275.751 179.661 C 275.338 178.484,274.443 176.864,273.761 176.061 C 273.080 175.257,272.187 173.880,271.777 173.000 C 271.366 172.120,270.799 171.162,270.515 170.871 C 270.232 170.581,269.997 170.221,269.994 170.071 C 269.990 169.922,269.450 169.191,268.794 168.446 C 268.137 167.701,267.600 166.882,267.600 166.625 C 267.600 166.368,266.694 165.177,265.587 163.979 C 264.480 162.781,262.815 160.930,261.887 159.867 C 259.433 157.055,258.417 156.034,255.852 153.800 C 254.588 152.700,252.817 151.035,251.916 150.100 C 251.014 149.165,250.065 148.400,249.805 148.400 C 249.545 148.400,248.598 147.725,247.700 146.900 C 246.802 146.075,245.377 145.040,244.534 144.601 C 243.690 144.161,242.746 143.561,242.436 143.266 C 241.574 142.445,239.200 141.053,237.200 140.195 C 236.210 139.770,235.310 139.318,235.200 139.190 C 234.622 138.520,231.835 137.167,229.000 136.181 C 227.240 135.569,225.710 134.948,225.600 134.800 C 225.138 134.179,219.112 132.369,216.332 132.017 C 214.678 131.807,212.352 131.273,211.162 130.830 C 205.070 128.561,207.866 128.665,146.200 128.401 C 114.960 128.267,89.355 128.122,89.300 128.079 C 88.869 127.739,89.404 127.087,90.400 126.740 C 91.060 126.510,91.600 126.187,91.600 126.023 C 91.600 125.293,93.579 123.565,95.532 122.590 C 96.705 122.005,98.163 121.003,98.774 120.365 C 99.384 119.726,100.424 119.095,101.085 118.963 C 102.131 118.754,102.796 118.330,105.058 116.431 C 105.814 115.796,108.555 114.400,109.044 114.400 C 109.294 114.400,110.186 113.771,111.024 113.003 C 111.863 112.235,112.906 111.493,113.343 111.355 C 114.410 111.016,118.111 108.630,118.734 107.880 C 119.008 107.549,119.720 107.157,120.316 107.008 C 121.256 106.774,123.811 105.135,124.400 104.389 C 124.510 104.250,125.500 103.702,126.600 103.173 C 127.700 102.644,129.165 101.632,129.855 100.924 C 130.546 100.217,131.536 99.531,132.055 99.400 C 132.575 99.269,134.330 98.180,135.955 96.981 C 137.580 95.781,139.169 94.800,139.486 94.800 C 139.803 94.800,140.776 94.080,141.647 93.200 C 142.518 92.320,143.507 91.600,143.843 91.600 C 144.472 91.600,147.173 89.858,148.600 88.533 C 149.040 88.124,150.155 87.454,151.078 87.044 C 152.001 86.634,153.138 85.892,153.604 85.396 C 154.070 84.900,155.579 83.921,156.956 83.222 C 158.334 82.523,159.898 81.554,160.431 81.070 C 160.964 80.585,162.185 79.840,163.144 79.414 C 164.103 78.988,165.390 78.180,166.003 77.619 C 166.616 77.059,168.168 76.060,169.451 75.400 C 170.734 74.740,172.147 73.873,172.592 73.473 C 173.036 73.074,174.263 72.312,175.318 71.781 C 176.372 71.250,178.352 70.024,179.718 69.057 C 181.083 68.090,182.587 67.180,183.060 67.035 C 183.532 66.890,184.350 66.341,184.877 65.814 C 185.404 65.287,187.086 64.204,188.614 63.407 C 190.142 62.611,191.754 61.622,192.196 61.209 C 192.638 60.797,193.540 60.338,194.200 60.190 C 196.310 59.716,200.167 58.335,201.198 57.684 C 203.540 56.204,210.791 55.609,216.123 56.458 M56.919 154.431 C 54.221 154.677,52.832 155.011,51.719 155.683 C 50.883 156.187,49.503 156.955,48.650 157.390 C 47.798 157.824,46.812 158.634,46.460 159.190 C 46.107 159.745,45.720 160.290,45.600 160.400 C 44.884 161.055,44.083 162.894,43.651 164.873 C 42.886 168.378,43.574 171.483,46.432 177.432 C 47.074 178.769,47.600 179.995,47.600 180.157 C 47.600 180.319,48.472 182.284,49.537 184.525 C 50.602 186.766,51.807 189.500,52.214 190.600 C 52.621 191.700,53.332 193.230,53.795 194.000 C 54.581 195.309,56.800 200.692,56.800 201.290 C 56.800 201.438,57.303 202.334,57.917 203.280 C 58.532 204.226,59.269 205.720,59.556 206.600 C 60.317 208.938,61.621 211.600,62.004 211.600 C 62.187 211.600,62.464 212.179,62.619 212.887 C 62.775 213.595,63.040 214.450,63.210 214.787 C 63.379 215.124,63.834 216.165,64.220 217.100 C 64.606 218.035,65.057 218.800,65.223 218.800 C 65.564 218.800,67.997 224.457,68.006 225.272 C 68.010 225.562,68.550 226.409,69.206 227.154 C 69.863 227.899,70.400 228.723,70.400 228.985 C 70.400 229.767,72.384 234.409,73.204 235.546 C 73.622 236.126,74.362 237.680,74.847 239.000 C 75.333 240.320,76.057 241.940,76.457 242.600 C 77.389 244.139,78.566 246.617,79.213 248.400 C 79.493 249.170,80.214 250.700,80.816 251.800 C 81.418 252.900,82.044 254.250,82.206 254.800 C 82.369 255.350,83.540 257.960,84.807 260.600 C 86.075 263.240,87.248 265.850,87.413 266.400 C 87.579 266.950,88.390 268.750,89.216 270.400 C 90.042 272.050,91.004 274.255,91.354 275.301 C 91.705 276.346,92.414 277.876,92.930 278.701 C 93.447 279.525,94.186 281.100,94.572 282.200 C 95.285 284.228,96.343 286.435,96.778 286.800 C 97.123 287.089,97.937 289.012,98.889 291.783 C 99.345 293.112,99.828 294.290,99.963 294.400 C 100.615 294.933,102.401 298.067,102.409 298.691 C 102.421 299.645,103.744 302.506,104.913 304.103 C 105.435 304.816,106.103 306.210,106.397 307.200 C 106.692 308.190,107.623 310.121,108.466 311.490 C 109.310 312.860,110.000 314.176,110.000 314.416 C 110.000 314.982,111.676 318.939,112.026 319.200 C 112.301 319.405,114.400 323.855,114.400 324.234 C 114.400 324.528,115.885 327.561,116.734 329.000 C 117.123 329.660,117.769 331.100,118.170 332.200 C 118.571 333.300,119.596 335.616,120.449 337.346 C 121.302 339.077,122.000 340.705,122.000 340.965 C 122.000 341.225,122.648 342.690,123.440 344.219 C 124.233 345.749,125.467 348.373,126.183 350.051 C 126.899 351.729,127.940 353.709,128.497 354.451 C 129.053 355.193,129.913 356.610,130.406 357.600 C 130.900 358.590,131.568 359.554,131.891 359.742 C 132.214 359.929,132.809 360.469,133.215 360.942 C 133.620 361.414,134.277 362.177,134.676 362.637 C 135.074 363.098,136.123 363.928,137.006 364.483 C 137.889 365.037,138.864 365.795,139.171 366.165 C 139.731 366.840,142.120 368.045,144.000 368.600 C 144.550 368.763,145.960 369.344,147.134 369.893 C 151.854 372.099,148.007 371.990,221.600 371.995 C 295.420 371.999,292.928 372.070,297.600 369.852 C 298.810 369.278,300.073 368.806,300.406 368.804 C 301.312 368.798,305.208 367.311,305.951 366.687 C 306.308 366.387,307.995 365.288,309.700 364.243 C 311.405 363.198,312.800 362.217,312.800 362.063 C 312.800 361.908,313.439 361.438,314.220 361.017 C 315.001 360.597,316.126 359.639,316.720 358.889 C 317.314 358.138,318.256 357.047,318.813 356.462 C 320.242 354.964,324.254 348.798,324.579 347.600 C 324.728 347.050,325.001 346.240,325.184 345.800 C 325.368 345.360,325.816 344.280,326.179 343.400 C 326.542 342.520,327.020 341.471,327.242 341.069 C 329.483 337.007,328.964 321.656,326.359 315.000 C 325.671 313.240,324.870 310.927,324.579 309.860 C 324.289 308.793,323.784 307.623,323.456 307.260 C 322.748 306.474,320.000 300.825,320.000 300.154 C 320.000 299.896,319.757 299.592,319.459 299.478 C 319.162 299.364,318.167 297.732,317.248 295.852 C 316.330 293.972,315.388 292.316,315.156 292.173 C 314.923 292.029,314.187 290.731,313.519 289.288 C 312.851 287.845,311.948 286.289,311.513 285.832 C 311.077 285.374,310.190 283.852,309.541 282.448 C 308.893 281.045,307.940 279.335,307.425 278.648 C 306.910 277.962,306.088 276.500,305.600 275.400 C 305.112 274.300,304.313 272.860,303.825 272.200 C 302.840 270.867,301.600 268.477,301.600 267.911 C 301.600 267.709,301.084 266.792,300.453 265.872 C 299.822 264.952,298.816 263.210,298.218 262.000 C 296.652 258.835,295.893 257.428,295.628 257.200 C 295.500 257.090,294.780 255.740,294.027 254.200 C 293.274 252.660,292.082 250.486,291.377 249.368 C 290.673 248.251,289.966 246.901,289.806 246.368 C 289.645 245.836,289.010 244.590,288.394 243.600 C 286.580 240.687,285.600 238.812,285.600 238.253 C 285.600 237.965,284.913 236.756,284.074 235.565 C 283.235 234.374,282.221 232.500,281.822 231.400 C 281.422 230.300,280.694 228.950,280.204 228.400 C 279.278 227.361,278.675 226.311,277.157 223.100 C 276.662 222.055,276.123 221.200,275.958 221.200 C 275.793 221.200,275.106 220.032,274.432 218.605 C 273.757 217.177,272.589 215.151,271.835 214.101 C 271.081 213.052,270.338 211.655,270.185 210.997 C 270.032 210.338,269.424 209.170,268.834 208.400 C 268.245 207.630,267.246 205.920,266.616 204.600 C 265.985 203.280,264.988 201.480,264.399 200.600 C 263.810 199.720,262.828 197.920,262.217 196.600 C 261.606 195.280,260.875 193.930,260.593 193.600 C 260.311 193.270,259.586 192.100,258.982 191.000 C 258.378 189.900,256.920 187.672,255.742 186.050 C 254.564 184.427,253.600 182.923,253.600 182.707 C 253.600 182.492,253.138 181.952,252.574 181.508 C 252.009 181.064,251.116 180.017,250.588 179.182 C 250.061 178.346,249.097 177.348,248.446 176.964 C 247.795 176.579,247.041 175.851,246.771 175.345 C 246.500 174.840,245.541 173.950,244.639 173.368 C 243.738 172.787,242.550 171.867,242.000 171.324 C 241.450 170.782,239.920 169.631,238.600 168.767 C 237.280 167.903,235.480 166.666,234.600 166.017 C 233.720 165.369,232.505 164.726,231.900 164.588 C 231.295 164.449,230.800 164.204,230.800 164.042 C 230.800 163.552,227.790 162.019,225.117 161.147 C 223.733 160.696,222.043 159.905,221.362 159.390 C 219.968 158.336,216.658 157.404,212.817 156.984 C 211.397 156.829,209.185 156.358,207.902 155.937 C 206.619 155.516,203.912 154.970,201.885 154.723 C 197.424 154.181,62.638 153.909,56.919 154.431 M202.600 156.927 C 205.240 157.275,209.740 157.763,212.600 158.012 C 217.689 158.456,217.827 158.493,219.084 159.769 C 220.016 160.716,221.110 161.265,223.084 161.775 C 224.578 162.161,226.115 162.562,226.500 162.666 C 226.885 162.769,227.200 163.020,227.200 163.222 C 227.200 163.790,230.101 165.489,231.899 165.973 C 232.964 166.260,233.871 166.880,234.575 167.803 C 235.161 168.571,235.891 169.200,236.197 169.200 C 236.919 169.200,239.600 170.780,239.600 171.205 C 239.600 171.385,240.545 172.217,241.700 173.054 C 243.929 174.668,248.863 179.542,250.200 181.450 C 250.640 182.077,251.592 183.213,252.315 183.973 C 253.039 184.733,253.967 186.115,254.378 187.044 C 254.789 187.972,255.592 189.038,256.163 189.412 C 256.733 189.786,257.202 190.296,257.205 190.546 C 257.215 191.423,259.607 195.714,260.598 196.633 C 261.149 197.144,261.602 197.975,261.604 198.481 C 261.608 199.471,263.810 203.600,264.334 203.600 C 264.761 203.600,266.000 206.242,266.000 207.152 C 266.000 207.551,266.630 208.526,267.400 209.319 C 268.170 210.112,268.800 210.877,268.800 211.020 C 268.800 211.310,269.742 213.546,270.667 215.453 C 271.002 216.142,271.708 216.903,272.238 217.144 C 272.814 217.407,273.200 217.923,273.200 218.431 C 273.200 219.685,274.370 222.001,275.852 223.677 C 276.570 224.490,277.360 225.910,277.609 226.833 C 277.875 227.820,278.625 229.043,279.430 229.803 C 280.184 230.513,280.800 231.266,280.800 231.475 C 280.800 232.783,282.224 236.242,283.170 237.232 C 283.787 237.878,284.612 239.440,285.003 240.703 C 285.393 241.966,286.314 243.829,287.048 244.842 C 287.782 245.855,288.777 247.745,289.258 249.042 C 289.739 250.339,290.541 251.850,291.039 252.400 C 291.537 252.950,292.431 254.570,293.026 256.000 C 293.621 257.430,294.624 259.092,295.254 259.694 C 295.884 260.296,296.400 261.064,296.400 261.400 C 296.400 261.736,296.562 262.323,296.759 262.705 C 296.956 263.087,297.424 264.144,297.799 265.054 C 298.173 265.963,298.903 266.934,299.421 267.211 C 299.962 267.501,300.473 268.242,300.623 268.957 C 300.992 270.708,302.499 273.634,303.699 274.929 C 304.258 275.532,304.833 276.648,304.975 277.409 C 305.118 278.169,305.947 279.614,306.817 280.620 C 307.688 281.626,308.400 282.691,308.400 282.987 C 308.400 284.030,310.484 287.529,311.219 287.721 C 311.629 287.828,312.086 288.430,312.235 289.058 C 312.741 291.190,314.082 293.796,315.216 294.853 C 315.888 295.479,316.461 296.533,316.631 297.453 C 316.907 298.956,319.096 302.800,319.675 302.800 C 319.834 302.800,320.085 303.475,320.233 304.300 C 320.382 305.125,321.205 307.121,322.062 308.736 C 323.512 311.466,324.684 315.253,326.043 321.600 C 326.746 324.880,326.764 332.988,326.076 336.400 C 324.829 342.589,323.759 345.903,322.375 347.865 C 321.729 348.781,321.190 349.771,321.177 350.065 C 321.127 351.224,315.074 359.059,313.954 359.414 C 312.998 359.718,312.014 360.463,310.237 362.230 C 309.557 362.906,308.136 363.789,307.080 364.191 C 306.025 364.594,304.842 365.329,304.452 365.825 C 303.972 366.435,302.846 366.936,300.971 367.372 C 299.447 367.727,297.660 368.179,297.000 368.376 C 296.340 368.573,295.193 368.858,294.451 369.010 C 293.708 369.161,292.448 369.671,291.651 370.143 L 290.200 371.000 222.237 371.105 L 154.275 371.209 152.237 370.169 C 150.001 369.028,149.097 368.705,145.131 367.631 C 143.474 367.182,142.109 366.529,141.531 365.909 C 141.019 365.360,140.154 364.771,139.609 364.600 C 137.704 364.001,131.368 356.990,130.405 354.414 C 129.927 353.135,129.134 351.739,128.644 351.313 C 128.154 350.887,127.443 349.472,127.063 348.169 C 126.265 345.430,124.458 341.600,123.964 341.600 C 123.778 341.600,123.165 340.088,122.601 338.240 C 122.024 336.348,121.061 334.232,120.398 333.398 C 119.750 332.583,119.099 331.260,118.950 330.458 C 118.569 328.408,117.412 325.831,116.477 324.948 C 116.040 324.537,115.287 322.860,114.802 321.223 C 114.205 319.207,113.550 317.901,112.773 317.175 C 112.026 316.477,111.533 315.524,111.360 314.443 C 111.214 313.529,110.939 312.686,110.747 312.568 C 110.556 312.449,110.400 311.997,110.400 311.563 C 110.400 311.129,109.773 310.146,109.006 309.379 C 108.239 308.612,107.511 307.493,107.388 306.892 C 106.760 303.829,106.251 302.684,105.022 301.566 C 104.224 300.840,103.599 299.830,103.478 299.073 C 103.011 296.158,102.313 294.221,101.483 293.539 C 100.997 293.141,100.400 292.648,100.156 292.444 C 99.912 292.241,99.593 291.168,99.446 290.060 C 99.117 287.581,98.358 285.760,97.021 284.238 C 96.460 283.599,96.000 282.752,96.000 282.357 C 96.000 281.961,95.832 281.224,95.628 280.719 C 95.423 280.213,95.155 279.326,95.032 278.746 C 94.909 278.166,94.183 276.763,93.419 275.628 C 92.655 274.492,91.909 272.896,91.763 272.082 C 91.616 271.267,91.364 270.420,91.204 270.200 C 91.044 269.980,90.593 268.945,90.202 267.900 C 89.811 266.855,89.363 266.000,89.206 266.000 C 88.871 266.000,87.911 263.810,87.015 261.000 C 86.665 259.900,85.843 258.293,85.189 257.429 C 84.535 256.565,84.000 255.527,84.000 255.123 C 84.000 254.720,83.835 254.077,83.633 253.695 C 83.432 253.313,83.048 252.409,82.780 251.687 C 82.512 250.965,81.791 249.744,81.179 248.974 C 80.567 248.203,79.940 246.814,79.786 245.886 C 79.462 243.941,78.839 242.645,77.494 241.120 C 76.970 240.526,76.309 239.266,76.024 238.320 C 75.098 235.238,74.799 234.610,73.677 233.397 C 73.020 232.685,72.285 231.146,71.863 229.600 C 71.473 228.170,70.653 226.370,70.042 225.600 C 68.563 223.738,68.160 222.906,67.817 221.000 C 67.658 220.120,66.898 218.521,66.127 217.447 C 65.356 216.373,64.461 214.573,64.138 213.447 C 63.365 210.755,62.514 208.887,61.350 207.327 C 60.828 206.626,60.400 205.685,60.400 205.235 C 60.400 204.050,59.248 201.266,57.936 199.280 C 57.311 198.334,56.800 197.348,56.800 197.090 C 56.800 196.203,54.657 191.000,53.798 189.800 C 53.325 189.140,52.627 187.610,52.247 186.400 C 51.377 183.634,50.485 181.661,49.568 180.481 C 49.176 179.975,48.457 178.265,47.970 176.681 C 47.484 175.096,46.546 173.042,45.887 172.116 C 44.113 169.625,44.382 163.836,46.349 162.182 C 47.037 161.603,47.606 160.830,47.613 160.464 C 47.645 158.759,48.558 158.273,54.137 156.995 C 55.422 156.701,56.580 156.354,56.710 156.224 C 57.324 155.609,197.735 156.286,202.600 156.927 " stroke="none" fill="#a4e1a4" fill-rule="evenodd"></path><path id="path4" d="M0.000 219.600 L 0.000 439.200 200.000 439.200 L 400.000 439.200 400.000 219.600 L 400.000 0.000 200.000 0.000 L 0.000 0.000 0.000 219.600 M218.912 54.567 C 222.229 54.983,223.568 55.337,224.712 56.098 C 225.530 56.643,227.280 57.407,228.600 57.797 C 230.585 58.382,233.077 59.759,234.000 60.779 C 234.110 60.900,234.857 61.360,235.660 61.800 C 237.368 62.736,240.222 65.198,245.396 70.200 C 247.444 72.180,249.543 74.163,250.060 74.607 C 250.577 75.051,251.432 75.996,251.960 76.707 C 252.488 77.418,253.120 78.000,253.365 78.000 C 253.610 78.000,254.168 78.491,254.605 79.091 C 255.042 79.690,255.901 80.635,256.512 81.191 C 257.124 81.746,258.114 82.709,258.712 83.332 C 259.311 83.954,263.940 88.584,269.000 93.621 C 274.060 98.658,278.470 103.087,278.800 103.464 C 279.130 103.841,279.820 104.520,280.334 104.975 C 281.455 105.964,298.238 122.729,299.446 124.065 C 299.911 124.579,300.811 125.488,301.446 126.084 C 302.081 126.680,302.978 127.580,303.440 128.084 C 303.901 128.588,304.711 129.387,305.240 129.860 C 305.768 130.333,306.563 131.143,307.007 131.660 C 307.451 132.177,308.396 133.032,309.107 133.560 C 309.818 134.088,310.400 134.720,310.400 134.965 C 310.400 135.210,310.892 135.768,311.492 136.205 C 312.376 136.848,316.368 140.635,321.496 145.695 C 321.883 146.077,322.809 146.977,323.554 147.695 C 324.299 148.413,325.289 149.435,325.754 149.966 C 326.219 150.498,327.262 151.610,328.070 152.437 C 328.879 153.264,329.735 154.305,329.973 154.750 C 330.211 155.194,331.139 156.405,332.035 157.441 C 332.931 158.476,334.094 160.294,334.619 161.481 C 335.144 162.668,335.914 164.125,336.330 164.719 C 337.291 166.091,338.800 170.467,338.800 171.881 C 338.800 172.474,339.284 174.498,339.875 176.379 C 341.320 180.980,341.443 189.654,340.113 193.200 C 339.660 194.410,339.059 196.840,338.780 198.600 C 338.250 201.932,337.628 203.615,335.665 207.032 C 335.022 208.150,334.364 209.483,334.202 209.994 C 334.040 210.505,333.401 211.481,332.782 212.162 C 332.163 212.843,331.228 214.030,330.703 214.800 C 329.617 216.395,325.676 220.400,325.193 220.400 C 325.017 220.400,324.039 221.211,323.019 222.202 C 322.000 223.193,320.558 224.258,319.815 224.568 C 319.072 224.878,318.280 225.476,318.056 225.896 C 317.831 226.316,316.339 227.263,314.740 228.000 C 313.142 228.736,311.244 229.929,310.523 230.650 C 309.704 231.469,308.647 232.055,307.706 232.211 C 306.878 232.348,305.722 232.642,305.137 232.864 C 303.076 233.645,299.034 229.567,297.539 225.200 C 297.275 224.430,296.371 222.788,295.530 221.551 C 294.688 220.315,294.000 219.180,294.000 219.029 C 294.000 218.437,291.607 213.974,290.859 213.171 C 290.423 212.704,289.956 211.844,289.820 211.260 C 289.577 210.220,288.398 207.594,287.996 207.200 C 287.251 206.469,285.600 203.487,285.600 202.874 C 285.600 202.465,284.893 201.142,284.028 199.935 C 283.164 198.728,282.091 196.701,281.645 195.431 C 281.199 194.162,280.417 192.735,279.908 192.261 C 279.019 191.434,278.341 190.183,277.182 187.229 C 276.886 186.475,276.139 185.375,275.522 184.786 C 274.905 184.196,274.400 183.546,274.400 183.341 C 274.400 182.690,272.844 179.888,271.666 178.419 C 271.040 177.639,270.195 176.280,269.788 175.400 C 269.380 174.520,268.541 173.271,267.923 172.624 C 267.306 171.977,266.800 171.247,266.800 171.002 C 266.800 170.756,265.772 169.306,264.515 167.778 C 263.259 166.250,262.044 164.751,261.815 164.447 C 261.587 164.143,260.712 163.164,259.871 162.271 C 259.030 161.378,258.085 160.152,257.772 159.546 C 257.459 158.941,256.710 158.209,256.108 157.920 C 255.506 157.632,254.651 156.832,254.207 156.143 C 253.763 155.454,252.632 154.423,251.694 153.852 C 250.756 153.280,249.796 152.391,249.561 151.875 C 249.326 151.359,248.564 150.727,247.867 150.471 C 247.170 150.216,245.430 149.111,244.000 148.018 C 242.570 146.924,241.147 146.023,240.838 146.015 C 240.255 145.999,237.501 144.073,237.267 143.517 C 237.193 143.342,236.958 143.200,236.745 143.200 C 236.531 143.200,235.511 142.839,234.478 142.398 C 232.729 141.650,231.556 141.067,228.000 139.175 C 227.230 138.765,225.430 138.144,224.000 137.795 C 221.358 137.149,219.880 136.582,218.800 135.800 C 217.747 135.038,215.358 134.384,212.134 133.977 C 210.410 133.759,208.190 133.431,207.200 133.248 C 201.223 132.143,200.084 131.898,199.000 131.488 C 198.131 131.159,182.740 131.002,143.200 130.920 C 84.143 130.797,86.072 130.872,84.918 128.642 C 84.279 127.405,86.254 124.800,87.831 124.800 C 88.105 124.800,88.764 124.282,89.297 123.650 C 89.829 123.017,91.330 121.909,92.632 121.188 C 93.935 120.466,95.696 119.284,96.547 118.560 C 97.398 117.835,98.584 117.135,99.182 117.004 C 99.781 116.872,100.902 116.169,101.674 115.441 C 102.446 114.713,103.923 113.695,104.955 113.179 C 105.988 112.664,107.411 111.717,108.117 111.076 C 108.823 110.436,110.120 109.592,111.000 109.203 C 111.880 108.813,113.140 108.012,113.800 107.423 C 114.460 106.834,115.683 105.994,116.518 105.558 C 117.353 105.122,119.364 103.873,120.988 102.783 C 122.611 101.692,124.120 100.800,124.341 100.800 C 124.562 100.800,124.986 100.575,125.282 100.300 C 126.457 99.211,128.506 97.926,130.282 97.165 C 131.309 96.725,132.382 96.033,132.665 95.629 C 132.948 95.224,134.330 94.339,135.735 93.661 C 137.140 92.983,139.052 91.792,139.983 91.014 C 140.914 90.236,141.993 89.600,142.382 89.600 C 142.770 89.600,143.740 88.985,144.538 88.233 C 145.335 87.481,147.115 86.193,148.494 85.372 C 149.872 84.550,151.450 83.498,152.000 83.033 C 152.550 82.568,153.630 81.850,154.400 81.437 C 155.170 81.025,156.250 80.287,156.800 79.799 C 157.350 79.311,158.715 78.424,159.834 77.828 C 160.952 77.232,162.322 76.323,162.878 75.808 C 163.434 75.292,164.749 74.479,165.800 74.000 C 166.851 73.521,168.150 72.722,168.687 72.224 C 169.224 71.726,170.774 70.736,172.132 70.023 C 173.489 69.310,174.871 68.418,175.202 68.041 C 175.532 67.663,176.702 66.915,177.802 66.378 C 178.901 65.840,179.890 65.295,180.000 65.165 C 180.606 64.451,184.600 61.996,185.800 61.600 C 186.570 61.346,187.200 60.987,187.200 60.802 C 187.200 60.222,189.745 58.860,192.696 57.862 C 194.257 57.334,196.053 56.532,196.689 56.079 C 199.213 54.282,210.513 53.513,218.912 54.567 M207.800 153.545 C 208.900 153.823,210.340 154.298,211.000 154.599 C 211.660 154.900,213.010 155.329,214.000 155.551 C 214.990 155.774,217.150 156.259,218.800 156.630 C 220.450 157.001,222.367 157.726,223.059 158.241 C 223.751 158.756,225.731 159.649,227.459 160.224 C 229.187 160.800,231.050 161.683,231.600 162.188 C 232.150 162.693,233.441 163.471,234.470 163.917 C 235.498 164.363,237.314 165.464,238.506 166.364 C 239.698 167.264,240.873 168.000,241.117 168.000 C 241.362 168.000,242.462 168.900,243.562 170.000 C 244.662 171.100,245.722 172.000,245.917 172.000 C 246.112 172.000,246.909 172.675,247.688 173.500 C 248.467 174.325,249.633 175.450,250.278 176.000 C 250.924 176.550,251.781 177.503,252.183 178.117 C 252.586 178.732,253.474 179.828,254.157 180.552 C 256.140 182.653,257.704 184.770,259.808 188.200 C 260.888 189.960,261.870 191.490,261.991 191.600 C 262.111 191.710,262.958 193.347,263.871 195.238 C 264.785 197.128,265.779 198.928,266.081 199.238 C 266.609 199.778,268.000 202.472,268.000 202.953 C 268.000 203.081,268.686 204.314,269.525 205.693 C 270.363 207.072,271.352 208.964,271.721 209.898 C 272.090 210.832,272.924 212.331,273.575 213.229 C 274.226 214.128,274.968 215.524,275.223 216.332 C 275.478 217.139,276.202 218.458,276.831 219.261 C 277.917 220.648,280.000 224.749,280.000 225.500 C 280.000 225.692,280.540 226.368,281.200 227.000 C 281.860 227.632,282.400 228.380,282.400 228.661 C 282.400 229.257,284.138 232.467,285.399 234.200 C 285.879 234.860,286.512 236.030,286.806 236.800 C 287.288 238.066,288.614 240.292,289.187 240.800 C 289.311 240.910,290.016 242.255,290.754 243.789 C 291.491 245.323,292.505 247.123,293.007 247.789 C 293.509 248.455,294.483 250.253,295.173 251.785 C 295.862 253.316,296.564 254.666,296.731 254.785 C 297.165 255.091,299.600 259.975,299.600 260.539 C 299.600 260.797,300.011 261.456,300.514 262.004 C 301.016 262.552,301.745 263.720,302.133 264.600 C 302.521 265.480,303.010 266.513,303.219 266.895 C 303.429 267.277,303.600 267.834,303.600 268.133 C 303.600 268.431,303.934 268.978,304.342 269.348 C 305.082 270.017,306.046 271.782,307.546 275.210 C 307.982 276.205,308.712 277.358,309.169 277.772 C 309.626 278.186,310.000 278.686,310.000 278.884 C 310.000 279.622,311.741 283.061,312.995 284.800 C 313.709 285.790,314.501 287.246,314.756 288.035 C 315.011 288.824,315.599 289.877,316.063 290.375 C 317.084 291.472,318.800 294.626,318.800 295.407 C 318.800 295.718,319.329 296.575,319.976 297.312 C 320.623 298.049,321.802 299.990,322.596 301.626 C 323.390 303.262,324.556 305.500,325.187 306.600 C 325.818 307.700,326.350 308.837,326.367 309.126 C 326.396 309.590,326.906 310.795,329.020 315.400 C 330.516 318.658,331.075 330.789,330.062 338.000 C 329.570 341.503,329.157 342.680,327.050 346.600 C 326.695 347.260,326.404 348.015,326.402 348.279 C 326.399 349.012,324.615 352.204,323.619 353.260 C 323.131 353.777,322.457 354.726,322.121 355.368 C 321.784 356.010,320.720 357.314,319.755 358.266 C 318.790 359.217,318.000 360.159,318.000 360.360 C 318.000 360.560,317.190 361.199,316.200 361.779 C 315.210 362.359,314.400 363.004,314.400 363.211 C 314.400 363.419,313.635 364.071,312.700 364.661 C 311.765 365.251,310.010 366.399,308.800 367.212 C 307.555 368.049,305.210 369.090,303.400 369.610 C 301.640 370.116,299.825 370.863,299.367 371.271 C 297.201 373.201,297.237 373.200,221.990 373.200 C 146.254 373.200,147.695 373.238,145.506 371.198 C 145.052 370.776,143.457 370.051,141.962 369.588 C 140.197 369.042,138.708 368.255,137.721 367.347 C 136.884 366.577,135.525 365.566,134.700 365.100 C 133.875 364.634,133.200 364.122,133.200 363.962 C 133.200 363.802,132.210 362.657,131.000 361.418 C 129.790 360.178,128.800 358.971,128.800 358.736 C 128.800 358.500,128.203 357.473,127.473 356.454 C 126.196 354.670,122.076 346.531,120.563 342.800 C 120.161 341.810,119.420 340.329,118.916 339.508 C 118.412 338.687,118.000 337.822,118.000 337.586 C 118.000 337.086,117.012 334.835,114.584 329.800 C 113.629 327.820,112.718 325.660,112.559 325.000 C 112.400 324.340,111.853 323.168,111.344 322.395 C 110.835 321.622,109.942 319.642,109.358 317.995 C 108.774 316.348,108.057 314.724,107.765 314.386 C 107.112 313.634,105.422 309.824,105.034 308.230 C 104.878 307.587,104.238 306.327,103.612 305.430 C 102.986 304.534,102.250 303.080,101.976 302.200 C 101.230 299.808,100.377 297.941,99.418 296.600 C 98.460 295.261,98.000 294.286,97.006 291.493 C 96.633 290.444,96.093 289.351,95.806 289.064 C 95.245 288.502,93.825 285.538,93.007 283.219 C 92.729 282.432,91.939 280.901,91.251 279.816 C 90.563 278.731,90.000 277.599,90.000 277.300 C 90.000 276.613,88.475 273.197,87.812 272.400 C 87.538 272.070,86.804 270.450,86.182 268.800 C 85.560 267.150,84.928 265.620,84.779 265.400 C 83.884 264.083,82.423 261.047,81.602 258.800 C 81.080 257.370,80.236 255.529,79.726 254.708 C 79.217 253.887,78.800 252.953,78.800 252.632 C 78.800 252.310,78.634 251.945,78.431 251.819 C 78.228 251.694,77.936 251.020,77.783 250.322 C 77.630 249.625,76.823 247.782,75.991 246.227 C 75.159 244.672,74.160 242.410,73.772 241.200 C 73.384 239.990,72.466 238.052,71.733 236.892 C 71.000 235.733,70.400 234.603,70.400 234.382 C 70.400 233.395,68.785 229.526,67.871 228.324 C 67.317 227.596,66.535 225.859,66.132 224.463 C 65.723 223.048,64.856 221.280,64.169 220.463 C 63.491 219.659,62.518 217.707,62.004 216.127 C 61.491 214.546,60.661 212.811,60.159 212.270 C 59.658 211.729,58.873 210.142,58.416 208.743 C 57.958 207.344,57.079 205.480,56.462 204.600 C 55.846 203.720,54.925 201.740,54.417 200.200 C 53.909 198.660,53.378 197.310,53.237 197.200 C 52.632 196.727,51.655 194.796,50.605 192.000 C 49.986 190.350,49.171 188.550,48.794 188.000 C 47.972 186.800,46.637 183.808,46.271 182.345 C 46.126 181.765,45.371 180.164,44.593 178.787 C 41.589 173.474,40.786 165.699,42.763 161.087 C 43.882 158.476,47.135 155.592,50.800 153.960 C 51.350 153.715,52.070 153.362,52.400 153.176 C 53.440 152.589,205.450 152.950,207.800 153.545 " stroke="none" fill="#ffffff" fill-rule="evenodd"></path></g></svg>